<svg width="570" height="574" viewBox="0 0 570 574" fill="none" xmlns="http://www.w3.org/2000/svg">
<g clip-path="url(#clip0_8_180)">
<path d="M24.5542 125.784L248.892 125.784V115.95L24.5542 115.95V125.784Z" fill="#EBEBEB"/>
<path d="M236.322 125.685H226.492V158.284H236.322V125.685Z" fill="#EBEBEB"/>
<path d="M236.322 125.685H226.492V135.788H236.322V125.685Z" fill="#DBDBDB"/>
<path d="M46.995 125.685H37.1651V158.284H46.995V125.685Z" fill="#EBEBEB"/>
<path d="M46.995 125.685H37.1651V135.788H46.995V125.685Z" fill="#DBDBDB"/>
<path d="M207.055 115.896V53.1211H191.3V115.896H207.055Z" fill="#C7C7C7"/>
<path d="M207.033 56.7357V49.8655H191.278V56.7357H207.033Z" fill="#DBDBDB"/>
<path d="M207.121 68.1398V65.5803H191.366V68.1398H207.121Z" fill="#DBDBDB"/>
<path d="M207.038 107.609V100.739H189.263V107.609H207.038Z" fill="#DBDBDB"/>
<path d="M191.247 115.875V42.7278H180.205V115.875H191.247Z" fill="#DBDBDB"/>
<path d="M189.13 77.6937V49.5393H182.532V77.6937H189.13Z" fill="#EBEBEB"/>
<path d="M109.524 115.946L161.526 64.5234L153.763 56.6674L101.762 108.09L109.524 115.946Z" fill="#C7C7C7"/>
<path d="M120.111 102.339L140.127 82.5464L135.488 77.8519L115.473 97.6445L120.111 102.339Z" fill="#DBDBDB"/>
<path d="M180.189 115.999V60.3635H161.472V115.999H180.189Z" fill="#A6A6A6"/>
<path d="M180.236 109.984V104.865H161.519V109.984H180.236Z" fill="#C7C7C7"/>
<path d="M180.245 101.506V99.4858H161.528V101.506H180.245Z" fill="#C7C7C7"/>
<path d="M220.084 115.941V63.6733H207.157V115.941H220.084Z" fill="#A6A6A6"/>
<path d="M220.046 110.38V105.53H207.119V110.38H220.046Z" fill="#C7C7C7"/>
<path d="M219.964 79.3144V74.4648H207.037V79.3144H219.964Z" fill="#C7C7C7"/>
<path d="M220.077 84.5461V82.6602H207.15V84.5461H220.077Z" fill="#C7C7C7"/>
<path d="M69.8866 49.0344C80.9284 59.8113 82.8136 76.65 80.5244 91.1987C80.5244 91.4681 79.9858 91.4681 79.9858 91.064C79.9858 87.6963 80.1205 84.4632 80.1205 81.0955C80.1205 80.9608 79.9858 80.826 79.9858 80.6913C77.158 78.536 74.4649 76.2459 72.849 73.0129C70.9638 69.3757 70.2906 65.3344 68.8093 61.5625C68.6747 61.1584 69.0787 61.2931 69.348 61.4278C76.0808 66.4121 78.2353 71.6658 80.1205 78.8054C79.9858 75.1682 79.7165 71.3963 78.9086 67.7592C77.4273 61.0237 74.5996 54.2881 69.7519 49.3039C69.4826 49.0344 69.7519 48.765 69.8866 49.0344Z" fill="#A6A6A6"/>
<path d="M67.8667 50.247C65.9816 50.247 64.7697 53.3453 63.2884 54.2883C62.4805 54.8271 61.8072 54.6924 61.1339 54.0188C59.6527 51.9982 61.6726 49.4387 63.5577 48.0916C62.2112 48.6304 61.1339 49.5734 59.6527 49.8428C58.7101 49.9775 58.0368 49.7081 57.9022 48.7651C57.2289 45.9362 60.73 44.7238 63.1538 44.7238C61.9419 43.9156 58.7101 41.7602 60.4607 40.6825C62.2112 39.6049 66.1162 42.7032 67.4628 43.7809C69.348 45.2627 71.6371 47.5527 71.6371 49.9775C71.7718 52.537 69.348 50.7858 67.8667 50.247Z" fill="#DBDBDB"/>
<path d="M68.4054 50.6511C65.9815 49.5734 61.2686 51.1899 60.8646 50.247C60.0567 48.361 63.827 47.1486 65.8469 46.8792C63.9617 46.3404 60.4606 45.5321 60.5953 43.7809C60.73 41.6255 65.9815 43.5115 68.6747 45.5321C72.0411 48.0916 72.0411 50.6511 71.5025 51.1899C70.6945 51.8635 68.8093 50.9205 68.4054 50.6511Z" fill="#EBEBEB"/>
<path d="M95.0673 47.9568C83.6215 58.3295 81.0631 75.0336 82.9482 89.717C82.9482 89.9864 83.4869 89.9864 83.4869 89.717C83.6215 86.3492 83.6215 83.1162 83.7562 79.7484C83.7562 79.6137 83.8908 79.479 83.8908 79.3443C86.8533 77.3237 89.5464 75.0336 91.2969 71.9353C93.3168 68.4328 94.1247 64.2568 95.7406 60.6196C95.8752 60.2155 95.4713 60.3502 95.202 60.4849C88.3345 65.1997 85.9107 70.4534 83.7562 77.4584C84.0255 73.8212 84.4295 70.0493 85.3721 66.4121C87.1226 59.6766 90.2197 53.0758 95.202 48.2263C95.6059 48.0916 95.3366 47.6874 95.0673 47.9568Z" fill="#A6A6A6"/>
<path d="M97.0872 49.304C98.9723 49.4387 100.05 52.5371 101.531 53.48C102.339 53.8842 103.012 53.8842 103.685 53.2106C105.167 51.1899 103.281 48.6305 101.531 47.1486C102.877 47.8222 103.955 48.7652 105.436 49.1693C106.378 49.304 107.052 49.0346 107.186 48.2263C107.994 45.3974 104.493 44.0503 102.069 43.9156C103.281 43.1073 106.648 41.0867 104.897 39.8743C103.147 38.6619 99.107 41.7602 97.7604 42.7032C95.8752 44.185 93.4514 46.3404 93.3168 48.7652C93.1821 51.4594 95.6059 49.7081 97.0872 49.304Z" fill="#DBDBDB"/>
<path d="M96.5485 49.7081C98.9723 48.6305 103.685 50.5164 104.089 49.5734C104.897 47.6875 101.262 46.3404 99.2417 45.9362C101.127 45.5321 104.628 44.8586 104.628 43.1073C104.628 40.952 99.2417 42.5685 96.4139 44.5891C92.9128 47.0139 92.9128 49.5734 93.4514 50.1123C94.2594 50.7858 96.1446 49.8428 96.5485 49.7081Z" fill="#EBEBEB"/>
<path d="M83.3522 75.303C82.5443 80.8261 81.467 86.4839 79.8511 91.7376C79.7165 92.2764 79.0432 92.1417 79.0432 91.6029C79.8511 86.4839 81.1977 81.6343 81.871 76.5154C82.6789 71.3964 83.0829 66.1427 82.8136 61.0237C82.275 52.5369 79.9858 43.3767 74.4649 36.7759C74.3302 36.6411 74.5995 36.3717 74.7342 36.5064C85.9107 49.4386 84.1601 65.4691 84.0255 66.8162C85.6414 61.4278 87.2572 55.2312 93.1821 49.8427C93.4514 49.5733 93.5861 49.708 93.5861 50.1122C92.5088 60.0807 89.6811 65.3344 84.0255 70.5881C83.8908 72.2046 83.6215 73.8212 83.3522 75.303Z" fill="#A6A6A6"/>
<path d="M74.3303 38.2577C72.3104 37.3147 69.6173 39.8742 67.5974 40.1436C66.5202 40.2783 65.7122 39.8742 65.5776 38.7965C65.039 35.9676 68.4054 34.3511 71.0985 33.8123C69.348 33.6776 67.7321 34.2164 66.1162 33.6776C65.1736 33.4081 64.635 32.7346 64.7697 31.6569C65.4429 28.4239 69.7519 28.9627 72.3104 30.0404C71.5025 28.5586 69.2133 24.652 71.5025 24.3826C73.9263 24.1131 76.3501 29.3668 77.158 31.1181C78.3699 33.6776 79.5818 37.18 78.3699 39.6048C77.158 42.5684 75.5422 39.6048 74.3303 38.2577Z" fill="#DBDBDB"/>
<path d="M74.5996 39.0661C72.5797 36.6413 67.0588 35.9677 67.0588 34.8901C67.1935 32.6 71.6371 33.1388 73.9263 33.8124C72.3104 32.3306 68.944 29.7711 70.0212 27.8851C71.2332 25.7298 75.8115 30.3099 77.562 33.8124C79.7165 38.2578 78.5046 40.8173 77.6967 41.0867C76.4847 41.3561 75.0035 39.3355 74.5996 39.0661Z" fill="#EBEBEB"/>
<path d="M90.7583 78.4013L95.6059 115.851H65.7122C66.3855 112.483 71.9064 78.2666 71.9064 78.2666L90.7583 78.4013Z" fill="#DBDBDB"/>
<path d="M447.328 87.9657C448.271 84.1938 449.752 80.9608 451.637 78.4013C453.657 75.7071 456.754 73.8211 461.198 72.474C462.544 72.0699 464.16 71.6658 466.045 71.1269C467.931 70.7228 469.816 70.0492 471.701 69.241C473.586 68.4327 475.337 67.355 476.818 66.0079C478.299 64.6608 479.376 62.9096 479.915 60.7542C480.319 59.1377 480.319 57.6559 480.05 56.3088C479.78 54.9617 479.242 53.7493 478.434 52.6716C477.626 51.594 476.683 50.651 475.471 49.8427C474.259 49.0345 472.913 48.4956 471.566 48.2262C469.95 47.8221 468.335 47.6874 466.719 47.9568C465.237 48.2262 463.756 48.6303 462.41 49.1692C461.063 49.708 459.851 50.5163 458.639 51.4592C457.427 52.4022 456.485 53.2105 455.677 54.0187L447.463 44.589C449.079 42.4337 450.829 40.6824 452.984 39.3353C455.138 37.8535 457.293 36.9105 459.717 36.1023C462.14 35.4287 464.699 35.0246 467.257 34.8899C469.816 34.8899 472.509 35.1593 475.067 35.8329C478.03 36.5064 480.723 37.7188 483.281 39.2006C485.84 40.8171 488.129 42.7031 489.88 45.1279C491.63 47.5526 492.842 50.3816 493.65 53.4799C494.323 56.7129 494.188 60.3501 493.246 64.2567C492.573 66.6815 491.765 68.8369 490.822 70.4534C489.745 72.2046 488.533 73.6864 487.052 74.8988C485.571 76.1112 483.955 77.1889 482.204 78.1319C480.454 78.9401 478.568 79.7484 476.414 80.4219C474.663 80.9608 472.913 81.4996 471.162 81.9037C469.412 82.3079 467.796 82.9814 466.315 83.655C464.833 84.3285 463.487 85.2715 462.275 86.4839C461.198 87.5616 460.39 89.1781 459.851 91.064L447.328 87.9657ZM440.865 114.638L444.77 98.8772L457.427 102.11L453.522 117.871L440.865 114.638Z" fill="#EBEBEB"/>
<path d="M46.7257 380.691C47.2644 383.52 47.399 386.079 46.995 388.504C46.5911 390.929 45.1098 393.219 42.5514 395.509C41.7434 396.183 40.9355 396.991 39.7236 397.934C38.6463 398.877 37.5691 399.82 36.4918 401.032C35.5493 402.244 34.7413 403.457 34.2027 404.804C33.6641 406.151 33.5294 407.633 33.7987 409.249C34.068 410.462 34.472 411.405 35.1453 412.213C35.8186 413.021 36.4918 413.695 37.4344 414.099C38.2424 414.503 39.3196 414.907 40.2622 414.907C41.3395 415.042 42.4167 414.907 43.3593 414.772C44.5712 414.503 45.6485 414.099 46.5911 413.425C47.5337 412.752 48.3416 412.078 49.0149 411.27C49.6882 410.462 50.2268 409.519 50.7654 408.576C51.304 407.633 51.5733 406.69 51.9773 405.882L60.5953 409.519C60.1914 411.405 59.5181 413.156 58.5755 414.772C57.6329 416.389 56.5556 417.871 55.0744 419.083C53.7279 420.296 52.112 421.373 50.4961 422.316C48.7456 423.125 46.995 423.798 44.9752 424.202C42.8207 424.606 40.6662 424.741 38.377 424.606C36.0879 424.472 34.068 423.798 32.0482 422.855C30.0283 421.777 28.4125 420.43 26.7966 418.41C25.3154 416.524 24.2381 414.099 23.5648 411.135C23.1609 409.384 23.0262 407.633 23.1609 406.151C23.2955 404.669 23.6995 403.322 24.2381 401.975C24.7768 400.628 25.45 399.416 26.3926 398.338C27.3352 397.26 28.2778 396.048 29.4897 394.97C30.4323 394.027 31.5096 393.219 32.4522 392.276C33.3948 391.468 34.3373 390.525 35.1453 389.582C35.9532 388.639 36.4918 387.561 36.8958 386.483C37.2998 385.406 37.2998 384.059 37.0305 382.711L46.7257 380.691ZM42.4167 360.888L44.8405 372.608L35.4146 374.629L32.9908 362.909L42.4167 360.888Z" fill="#EBEBEB"/>
<path d="M470.758 260.529C472.509 262.82 473.586 265.11 474.125 267.534C474.663 269.959 474.394 272.653 473.048 275.752C472.644 276.695 472.105 277.772 471.566 279.119C470.893 280.467 470.354 281.814 469.95 283.296C469.546 284.777 469.277 286.259 469.412 287.741C469.412 289.223 469.95 290.705 470.893 291.917C471.566 292.86 472.374 293.668 473.317 294.072C474.259 294.476 475.202 294.746 476.145 294.881C477.087 294.881 478.164 294.746 479.107 294.476C480.05 294.072 480.992 293.668 481.935 292.995C483.012 292.186 483.82 291.378 484.359 290.435C484.897 289.492 485.436 288.414 485.705 287.472C485.975 286.394 486.109 285.316 486.244 284.373C486.244 283.296 486.244 282.353 486.244 281.41L495.4 281.14C495.804 283.026 495.939 284.912 495.804 286.798C495.67 288.684 495.131 290.435 494.458 292.186C493.785 293.938 492.842 295.554 491.63 297.036C490.418 298.518 489.072 299.865 487.456 301.077C485.705 302.424 483.685 303.367 481.666 304.176C479.511 304.984 477.357 305.253 475.202 305.119C473.048 304.984 470.758 304.445 468.604 303.233C466.449 302.155 464.43 300.404 462.679 297.979C461.602 296.497 460.794 295.015 460.255 293.668C459.717 292.321 459.447 290.839 459.447 289.492C459.447 288.01 459.582 286.663 459.851 285.316C460.121 283.969 460.659 282.487 461.198 280.871C461.736 279.658 462.275 278.446 462.814 277.234C463.352 276.021 463.756 274.809 464.16 273.596C464.43 272.384 464.564 271.172 464.43 270.094C464.295 268.882 463.891 267.804 462.948 266.591L470.758 260.529ZM458.639 244.364L465.776 254.063L457.966 259.856L450.829 250.157L458.639 244.364Z" fill="#EBEBEB"/>
<path d="M515.06 236.282C515.06 233.183 515.599 230.354 516.541 227.93C517.619 225.505 519.639 223.215 522.87 221.463C523.813 220.925 525.025 220.251 526.371 219.443C527.718 218.769 529.199 217.826 530.546 216.749C531.892 215.671 532.97 214.593 533.912 213.111C534.855 211.764 535.259 210.148 535.259 208.397C535.259 207.049 534.989 205.837 534.451 204.894C533.912 203.816 533.239 203.008 532.431 202.335C531.623 201.661 530.68 201.122 529.468 200.718C528.391 200.314 527.179 200.179 526.102 200.179C524.756 200.179 523.409 200.449 522.332 200.853C521.12 201.392 520.177 201.93 519.235 202.604C518.292 203.278 517.484 204.221 516.811 205.029C516.137 205.972 515.464 206.78 514.926 207.723L506.577 201.93C507.385 199.91 508.462 198.159 509.809 196.677C511.155 195.195 512.771 193.848 514.522 192.77C516.272 191.692 518.157 190.884 520.177 190.345C522.197 189.807 524.352 189.537 526.506 189.537C528.93 189.537 531.354 189.941 533.643 190.615C536.067 191.288 538.086 192.366 539.972 193.983C541.857 195.464 543.338 197.485 544.55 199.91C545.762 202.335 546.301 205.163 546.301 208.531C546.301 210.552 546.031 212.438 545.627 213.92C545.089 215.536 544.415 216.883 543.607 218.23C542.665 219.443 541.722 220.655 540.51 221.733C539.298 222.811 537.952 223.753 536.336 224.696C535.124 225.505 533.777 226.178 532.566 226.852C531.354 227.525 530.142 228.334 529.064 229.142C527.987 229.95 527.179 231.028 526.506 232.106C525.833 233.183 525.563 234.53 525.563 236.147H515.06V236.282ZM515.195 258.509V245.307H525.833V258.509H515.195Z" fill="#EBEBEB"/>
<path d="M182.998 312.797C182.325 309.699 182.325 306.87 182.729 304.31C183.267 301.616 184.883 299.056 187.576 296.632C188.384 295.823 189.461 295.015 190.673 293.937C191.885 292.995 193.097 291.782 194.174 290.57C195.252 289.357 196.194 287.876 196.733 286.394C197.406 284.912 197.541 283.161 197.137 281.409C196.867 280.062 196.329 278.985 195.656 278.042C194.982 277.099 194.174 276.425 193.097 275.886C192.155 275.348 191.077 275.078 189.865 274.943C188.653 274.809 187.576 274.943 186.499 275.078C185.152 275.347 183.94 275.886 182.863 276.56C181.786 277.233 180.978 278.042 180.17 278.985C179.362 279.928 178.824 280.871 178.285 281.948C177.746 283.026 177.342 283.969 177.073 284.912L167.782 281.005C168.186 278.85 168.859 276.964 169.936 275.213C171.013 273.462 172.225 271.845 173.707 270.498C175.188 269.151 176.938 267.938 178.824 266.995C180.709 266.052 182.729 265.379 184.883 264.84C187.307 264.301 189.596 264.167 192.155 264.436C194.578 264.571 196.868 265.244 199.022 266.457C201.177 267.534 203.062 269.151 204.678 271.306C206.293 273.462 207.505 276.021 208.179 279.254C208.583 281.275 208.717 283.026 208.583 284.643C208.448 286.259 208.044 287.741 207.505 289.223C206.832 290.704 206.159 292.052 205.082 293.264C204.139 294.476 202.927 295.823 201.715 297.036C200.638 298.114 199.561 299.056 198.483 299.999C197.406 300.942 196.464 302.02 195.521 302.963C194.713 304.041 194.04 305.118 193.636 306.466C193.232 307.678 193.232 309.025 193.501 310.642L182.998 312.797ZM187.846 334.485L185.152 321.553L195.521 319.398L198.214 332.33L187.846 334.485Z" fill="#EBEBEB"/>
<path d="M506.846 417.332L524.89 416.928L533.777 416.793C536.74 416.793 539.702 416.793 542.53 416.659L541.991 417.197L541.857 402.11L542.53 402.783L524.756 402.649C518.831 402.649 512.906 402.514 506.981 402.379L507.385 401.975C507.385 404.4 507.25 406.959 507.25 409.384L506.846 417.332ZM506.846 417.332L506.712 409.923C506.712 407.364 506.577 404.804 506.577 402.245V401.84H506.981C512.906 401.706 518.831 401.571 524.756 401.571L542.53 401.436H543.203V402.11L543.069 417.197V417.736H542.53C539.568 417.736 536.471 417.736 533.508 417.601L524.486 417.467L506.846 417.332Z" fill="#EBEBEB"/>
<path d="M526.775 436.326L544.819 435.922L553.707 435.787C556.669 435.787 559.632 435.787 562.459 435.653L561.921 436.191L561.786 421.104L562.459 421.778L544.685 421.643C538.76 421.643 532.835 421.508 526.91 421.373L527.314 420.969C527.314 423.394 527.179 425.954 527.179 428.378L526.775 436.326ZM526.775 436.326L526.641 428.917C526.641 426.358 526.506 423.798 526.506 421.239V420.835H526.91C532.835 420.7 538.76 420.565 544.685 420.565L562.459 420.43H563.133V421.104L562.998 436.191V436.73H562.459C559.497 436.73 556.4 436.73 553.437 436.596L544.415 436.461L526.775 436.326Z" fill="#EBEBEB"/>
<path d="M486.917 436.326L504.961 435.922L513.848 435.787C516.811 435.787 519.773 435.787 522.601 435.653L522.062 436.191L521.928 421.104L522.601 421.778L504.826 421.643C498.902 421.643 492.977 421.508 487.052 421.373L487.456 420.969C487.456 423.394 487.321 425.954 487.321 428.378L486.917 436.326ZM486.917 436.326L486.782 428.917C486.782 426.358 486.648 423.798 486.648 421.239V420.835H487.052C492.977 420.7 498.902 420.565 504.826 420.565L522.601 420.43H523.274V421.104L523.14 436.191V436.73H522.601C519.639 436.73 516.542 436.73 513.579 436.596L504.557 436.461L486.917 436.326Z" fill="#EBEBEB"/>
<path d="M27.4699 436.326L45.5138 435.922L54.4012 435.787C57.3636 435.787 60.326 435.787 63.1538 435.653L62.6152 436.191L62.4805 421.104L63.1538 421.778L45.3792 421.643C39.4543 421.643 33.5294 421.508 27.6046 421.373L28.0085 420.969C28.0085 423.394 27.8739 425.954 27.8739 428.378L27.4699 436.326ZM27.4699 436.326L27.3352 428.917C27.3352 426.358 27.2006 423.798 27.2006 421.239V420.835H27.6046C33.5294 420.7 39.4543 420.565 45.3792 420.565L63.1538 420.43H63.8271V421.104L63.6924 436.191V436.73H63.1538C60.1914 436.73 57.0943 436.73 54.1318 436.596L45.1099 436.461L27.4699 436.326Z" fill="#EBEBEB"/>
<path d="M27.4699 16.9735L45.5138 16.5694L54.4012 16.4347C57.3636 16.4347 60.326 16.4347 63.1538 16.2999L62.6152 16.8388L62.3459 1.88595L63.0192 2.5595H45.2445C39.3197 2.5595 33.3948 2.42479 27.4699 2.29008L27.8739 1.88595C27.8739 4.31074 27.7392 6.87023 27.7392 9.29501L27.4699 16.9735ZM27.4699 16.9735L27.3352 9.56443C27.3352 7.00494 27.2006 4.44545 27.2006 1.88595V1.48182H27.6046C33.3948 1.48182 39.3197 1.34711 45.2445 1.34711L63.0192 1.2124H63.6924V1.88595L63.5578 16.9735V17.5123H63.0192C60.0567 17.5123 56.9596 17.5123 53.9972 17.3776L44.9752 17.2429L27.4699 16.9735Z" fill="#EBEBEB"/>
<path d="M7.54077 35.9676L25.5847 35.5634L34.472 35.4287C37.4345 35.4287 40.3969 35.4287 43.2247 35.294L42.6861 35.8329L42.5514 20.7453L43.2247 21.4189L25.3154 21.5536C19.3905 21.5536 13.4656 21.4189 7.54077 21.2842L7.94474 20.88C7.94474 23.3048 7.81008 25.8643 7.81008 28.2891L7.54077 35.9676ZM7.54077 35.9676L7.40611 28.5585C7.40611 25.999 7.27145 23.4395 7.27145 20.88V20.4759H7.67542C13.6003 20.3412 19.5252 20.2065 25.4501 20.2065L43.2247 20.0718H43.898V20.7453L43.7633 35.8329V36.3717H43.2247C40.2622 36.3717 37.1651 36.3717 34.2027 36.237L25.1807 36.3717L7.54077 35.9676Z" fill="#EBEBEB"/>
<path d="M526.775 16.9735L544.819 16.5694L553.707 16.4347C556.669 16.4347 559.632 16.4347 562.459 16.3L561.921 16.8388L561.786 1.7513L562.459 2.42485L544.685 2.29014C538.76 2.29014 532.835 2.15543 526.91 2.02072L527.314 1.61659C527.314 4.04137 527.179 6.60086 527.179 9.02565L526.775 16.9735ZM526.775 16.9735L526.641 9.56449C526.641 7.00499 526.506 4.4455 526.506 1.88601V1.48188H526.91C532.7 1.48188 538.625 1.34717 544.55 1.34717H562.459H563.133V2.02072L562.998 17.1083V17.6471H562.459C559.497 17.6471 556.4 17.6471 553.437 17.5124L544.415 17.3777L526.775 16.9735Z" fill="#EBEBEB"/>
<path d="M333.678 212.438L315.634 212.842L306.747 212.977C303.785 212.977 300.822 212.977 297.994 213.111L298.533 212.573L298.668 227.66L297.994 226.987L315.769 227.121C321.694 227.121 327.619 227.256 333.544 227.391L333.14 227.795C333.14 225.37 333.274 222.811 333.274 220.386L333.678 212.438ZM333.678 212.438L333.813 219.847C333.813 222.406 333.948 224.966 333.948 227.525V227.929H333.544C327.619 228.064 321.694 228.199 315.769 228.199L297.994 228.334H297.321V227.66L297.456 212.573V212.034H297.994C300.957 212.034 304.054 212.034 307.016 212.168L316.038 212.303L333.678 212.438Z" fill="#EBEBEB"/>
<path d="M313.884 193.444L295.84 193.848L286.953 193.983C283.99 193.983 281.028 193.983 278.2 194.117L278.739 193.579L278.873 208.666L278.2 207.993L295.975 208.127C301.899 208.127 307.824 208.262 313.749 208.397L313.345 208.801C313.345 206.376 313.48 203.817 313.48 201.392L313.884 193.444ZM313.884 193.444L314.018 200.853C314.018 203.412 314.153 205.972 314.153 208.531V208.936H313.749C307.824 209.07 301.899 209.205 295.975 209.205L278.2 209.34H277.527V208.666L277.661 193.579V193.04H278.2C281.162 193.04 284.259 193.04 287.222 193.174L296.244 193.309L313.884 193.444Z" fill="#EBEBEB"/>
<path d="M0 504.355L71.2332 503.951H142.466L284.933 503.681L427.399 503.951H498.632L570 504.355L498.632 504.624L427.399 504.759L284.933 505.028L142.466 504.759L71.2332 504.624L0 504.355Z" fill="#263238"/>
<path d="M284.933 574C419.094 574 527.853 563.385 527.853 550.291C527.853 537.197 419.094 526.582 284.933 526.582C150.772 526.582 42.0128 537.197 42.0128 550.291C42.0128 563.385 150.772 574 284.933 574Z" fill="#EBEBEB"/>
<path d="M523.409 356.174C518.292 351.19 511.694 345.128 503.884 347.283C496.478 349.304 493.65 357.386 492.438 363.987C490.688 372.608 489.476 381.365 487.994 389.986C486.648 398.742 485.301 407.498 484.089 416.389C483.416 421.374 482.608 426.358 481.935 431.207C481.531 433.632 481.262 436.192 480.858 438.616C480.454 441.041 480.05 443.466 479.915 445.891C479.915 446.699 481.127 446.834 481.262 446.025C482.204 441.849 482.608 437.539 483.147 433.363C483.82 429.187 484.359 424.876 485.032 420.7C486.244 412.348 487.59 403.861 488.802 395.509C490.014 387.157 491.361 378.805 492.707 370.318C493.785 363.179 494.323 354.423 500.652 349.708C504.153 347.148 508.462 347.148 512.367 348.63C516.541 350.247 519.773 353.21 523.005 356.174C523.274 356.309 523.409 356.174 523.409 356.174Z" fill="#263238"/>
<path d="M516.407 351.055C516.407 351.055 505.904 347.283 500.787 354.961C495.67 362.64 501.729 382.038 549.398 392.95C549.398 392.95 548.186 372.204 537.952 349.842C527.718 327.615 509.539 335.967 516.407 351.055Z" fill="#B68C5A"/>
<path d="M546.57 389.717C545.897 388.369 544.954 387.157 544.146 385.81C543.338 384.598 542.53 383.385 541.722 382.173C541.049 381.23 540.51 380.287 539.837 379.479C539.837 379.209 539.837 379.074 539.972 378.805C539.972 378.401 540.106 377.997 540.106 377.593C540.241 376.65 540.376 375.841 540.51 374.898C540.645 373.955 540.78 373.147 540.914 372.204C541.049 371.261 541.184 370.184 541.588 369.375C541.588 369.241 541.453 369.106 541.318 369.375C541.318 369.914 541.049 370.453 540.914 370.992C540.78 371.396 540.645 371.8 540.645 372.204C540.376 373.147 540.241 373.955 539.972 374.898C539.837 375.707 539.568 376.515 539.433 377.458C539.298 377.862 539.298 378.266 539.298 378.67C538.49 377.458 537.548 376.246 536.74 375.033C534.181 371.665 531.488 368.432 528.795 365.334C528.795 365.334 528.795 365.334 528.795 365.199C529.065 360.215 528.93 355.231 530.007 350.381C530.007 350.246 529.872 350.112 529.738 350.246C528.661 354.827 527.718 359.676 527.987 364.526C527.045 363.448 525.967 362.37 525.025 361.158C522.736 358.599 520.312 356.174 517.888 353.749C517.753 353.614 517.619 353.749 517.753 353.884C521.793 358.194 525.563 362.64 529.334 367.22C526.506 367.085 523.544 367.355 520.581 367.489C517.349 367.759 514.118 368.163 510.886 368.567C510.751 368.567 510.751 368.836 510.886 368.836C514.118 368.298 517.349 368.163 520.447 368.028C523.544 367.894 526.641 368.028 529.738 368.028C531.758 370.453 533.777 373.012 535.663 375.572C535.528 375.572 535.393 375.572 535.259 375.572C534.585 375.572 533.777 375.572 533.104 375.572C531.623 375.572 530.142 375.707 528.795 375.841C525.833 376.111 522.87 376.515 520.043 377.189C519.908 377.189 519.908 377.458 520.043 377.458C523.005 377.189 525.833 376.919 528.795 376.784C530.142 376.784 531.623 376.784 532.97 376.784C533.643 376.784 534.451 376.784 535.124 376.784C535.528 376.784 535.932 376.784 536.336 376.65C537.682 378.266 538.894 380.017 540.106 381.634C541.184 382.981 542.126 384.328 543.069 385.675C544.011 387.022 544.954 388.504 546.031 389.851C546.57 389.851 546.704 389.851 546.57 389.717Z" fill="#263238"/>
<path d="M520.85 361.831C519.235 361.562 517.484 361.562 515.734 361.562C513.983 361.562 512.367 361.562 510.617 361.697C510.482 361.697 510.482 361.966 510.617 361.966C512.367 361.831 514.118 361.831 515.734 361.831C517.619 361.831 519.235 361.966 520.85 361.831C520.985 361.831 520.985 361.831 520.85 361.831Z" fill="#263238"/>
<path d="M535.797 365.603C535.932 363.987 536.201 362.37 536.605 360.754C536.605 360.619 536.471 360.619 536.336 360.754C536.067 362.37 535.797 363.987 535.528 365.603C535.393 366.412 535.259 367.22 535.259 368.028C535.124 368.702 534.989 369.51 535.124 370.318C535.124 370.453 535.393 370.453 535.393 370.318C535.528 369.645 535.528 368.837 535.663 368.028C535.663 367.22 535.797 366.412 535.797 365.603Z" fill="#263238"/>
<path d="M532.7 347.687C532.296 349.303 531.892 350.92 531.623 352.537C531.488 353.345 531.354 354.153 531.219 354.961C531.084 355.77 530.95 356.578 531.084 357.386C531.084 357.386 531.219 357.521 531.219 357.386C531.488 356.713 531.488 355.904 531.623 355.096C531.758 354.288 531.892 353.479 532.027 352.671C532.296 351.055 532.566 349.303 532.97 347.687C532.97 347.552 532.7 347.552 532.7 347.687Z" fill="#263238"/>
<path d="M470.758 444.274C470.489 441.311 470.22 438.347 469.95 435.249C469.277 429.321 468.604 423.394 467.796 417.467C466.988 411.54 466.18 405.612 465.237 399.82C464.833 397.126 464.295 394.431 463.487 391.737C462.679 389.582 461.332 387.561 459.043 386.753C453.388 384.867 449.617 390.66 447.463 394.701C447.328 394.836 447.597 394.97 447.597 394.836C448.944 392.95 452.714 387.426 456.889 387.696C459.717 387.831 462.006 389.851 463.352 396.991C466.719 414.773 469.816 450.875 470.22 453.165C470.354 454.377 471.297 454.377 471.297 453.03C471.297 450.067 471.028 447.103 470.758 444.274Z" fill="#263238"/>
<path d="M448.809 392.545C448.809 392.545 453.657 375.303 442.885 383.924C424.841 398.338 424.167 429.591 424.167 429.591C424.167 429.591 456.216 411.001 460.121 398.742C466.18 380.422 448.809 392.545 448.809 392.545Z" fill="#B68C5A"/>
<path d="M454.869 401.032C452.31 401.571 449.752 401.84 447.328 402.245C446.116 402.379 444.904 402.649 443.692 402.783C442.884 402.918 442.077 402.918 441.269 403.053C443.692 399.82 446.116 396.452 448.405 393.084C448.54 392.95 448.271 392.815 448.136 392.95C446.251 394.836 444.5 396.991 442.75 399.146C442.346 397.799 441.807 396.452 441.269 395.105C440.73 393.623 440.191 392.007 439.787 390.39C439.787 390.255 439.518 390.255 439.518 390.39C439.922 392.007 440.326 393.623 440.73 395.24C441.134 396.721 441.538 398.338 442.211 399.82C440.999 401.302 439.922 402.918 438.845 404.535C438.306 402.918 437.633 401.436 437.094 399.82C437.094 399.685 436.825 399.685 436.825 399.82C437.364 401.571 437.768 403.457 438.306 405.208C437.633 406.286 436.825 407.364 436.152 408.441C434.805 410.462 433.593 412.483 432.381 414.503C432.247 414.638 432.112 414.773 432.112 415.042C430.092 418.545 428.207 422.047 426.322 425.684C426.322 425.819 426.456 425.954 426.456 425.819C428.342 422.316 430.496 418.814 432.651 415.446C432.92 415.311 433.459 415.312 433.728 415.177C434.132 415.042 434.401 415.042 434.805 414.907C435.613 414.773 436.421 414.503 437.229 414.369C438.845 413.964 440.461 413.56 442.077 413.291C442.211 413.291 442.211 413.021 442.077 413.021C440.191 413.426 438.172 413.56 436.286 413.83C435.344 413.964 434.401 414.099 433.459 414.234H433.324C434.536 412.483 435.613 410.731 436.825 408.98C438.037 407.229 439.249 405.612 440.326 403.996C441.403 403.861 442.481 403.592 443.692 403.322C444.904 403.053 446.116 402.783 447.463 402.649C449.887 402.11 452.445 401.571 454.869 401.167C455.138 401.167 455.004 401.032 454.869 401.032Z" fill="#263238"/>
<path d="M435.613 402.783C435.478 402.379 435.344 401.84 435.209 401.436C434.94 400.493 434.67 399.55 434.536 398.473C434.536 398.338 434.266 398.338 434.266 398.473C434.536 399.416 434.67 400.359 434.94 401.436C435.209 402.379 435.344 403.457 435.748 404.265C435.882 404.535 436.152 404.4 436.152 404.13C436.017 403.726 435.748 403.187 435.613 402.783Z" fill="#263238"/>
<path d="M458.101 396.991C456.619 397.26 455.138 397.26 453.657 397.395C452.176 397.53 450.695 397.664 449.213 397.934C449.079 397.934 449.079 398.069 449.213 398.069C450.695 397.934 452.176 397.799 453.657 397.665C455.138 397.53 456.619 397.26 458.101 397.126C458.37 397.26 458.235 396.991 458.101 396.991Z" fill="#263238"/>
<path d="M494.323 422.316C493.785 409.519 492.977 396.856 491.63 384.193C490.957 377.862 490.283 371.531 489.341 365.334C488.533 359.137 487.456 353.075 485.705 347.013C484.359 342.433 482.608 337.853 479.646 334.081C476.683 330.444 472.24 328.154 467.392 328.693C461.871 329.366 457.293 332.869 453.522 336.641C449.213 340.951 445.174 345.532 441.134 350.112C440.057 351.324 439.114 352.402 438.037 353.614C437.902 353.749 438.037 353.884 438.172 353.749C442.077 349.169 446.251 344.858 450.425 340.547C454.33 336.641 458.505 332.465 463.891 330.848C466.449 330.04 469.142 329.905 471.701 330.713C473.721 331.387 475.606 332.599 477.087 334.081C480.184 337.314 481.935 341.625 483.147 345.801C486.513 357.521 487.86 369.779 489.072 381.903C490.418 394.162 491.226 406.555 491.899 418.814C492.573 431.207 492.977 443.601 494.189 455.994C494.323 457.476 494.592 459.092 494.727 460.574C494.862 461.652 496.478 461.652 496.343 460.574C495.4 447.911 494.862 435.114 494.323 422.316Z" fill="#263238"/>
<path d="M452.714 338.123C452.714 338.123 459.986 324.652 451.368 320.341C442.75 316.03 414.068 348.091 405.585 395.105C405.585 395.105 452.041 374.494 467.796 354.018C483.685 333.542 465.776 329.097 452.714 338.123Z" fill="#B68C5A"/>
<path d="M459.582 349.034C454.33 349.034 449.213 348.63 443.962 348.63C444.904 347.552 445.847 346.34 446.924 345.262C448.271 343.78 449.887 342.164 450.964 340.547C451.099 340.413 450.829 340.278 450.829 340.413C449.348 341.49 448.136 342.972 446.924 344.319C445.578 345.666 444.366 347.148 443.019 348.495C440.999 350.651 439.114 352.806 437.094 355.096C437.094 354.827 437.094 354.692 437.094 354.422C437.094 353.479 437.094 352.536 437.094 351.728C437.094 349.977 437.094 348.226 437.094 346.475C437.094 342.837 437.094 339.335 437.364 335.698C437.364 335.563 437.094 335.563 437.094 335.698C436.825 339.335 436.421 342.837 436.286 346.475C436.152 348.226 436.152 349.977 436.152 351.728C436.152 352.671 436.152 353.614 436.152 354.422C436.152 354.961 436.152 355.5 436.152 355.904C435.882 356.308 435.478 356.578 435.209 356.982C431.035 361.697 427.13 366.681 423.225 371.665C423.225 371.396 423.225 371.126 423.09 370.857C423.09 370.318 422.955 369.779 422.955 369.241C422.821 368.028 422.686 366.816 422.417 365.603C422.282 364.526 422.013 363.313 421.878 362.236C421.609 361.023 421.339 359.676 421.205 358.464C421.205 358.329 420.936 358.329 420.936 358.464C421.205 359.676 421.205 361.023 421.339 362.236C421.474 363.448 421.609 364.526 421.609 365.738C421.743 366.95 421.878 368.028 421.878 369.241C421.878 369.779 422.013 370.318 422.013 370.857C422.013 371.126 422.013 371.396 422.147 371.665C422.147 372.069 422.282 372.069 422.417 372.339C421.743 373.147 421.07 374.09 420.397 374.898C417.704 378.401 415.145 381.903 412.587 385.406C412.452 385.54 412.722 385.675 412.722 385.54C415.145 382.307 417.704 379.209 420.262 376.111C422.147 376.245 424.167 376.111 426.052 375.976C428.072 375.976 430.092 375.976 432.112 375.976C432.247 375.976 432.247 375.707 432.112 375.707C430.092 375.707 428.072 375.707 426.052 375.841C424.167 375.841 422.282 375.707 420.532 375.841C422.821 373.147 425.11 370.453 427.264 367.759C428.072 366.816 428.88 365.738 429.823 364.795C430.631 364.93 431.439 364.93 432.112 364.93C433.055 364.93 433.997 364.93 434.805 364.93C436.556 364.93 438.172 364.93 439.922 364.795C443.423 364.795 447.059 364.66 450.56 364.66C450.695 364.66 450.695 364.391 450.56 364.391C447.059 364.391 443.423 364.256 439.922 364.122C438.172 364.122 436.556 363.987 434.805 363.987C433.863 363.987 432.92 363.987 432.112 363.987C431.573 363.987 431.035 363.987 430.496 363.987C432.381 361.697 434.401 359.407 436.286 357.117L436.421 356.982C438.306 354.692 440.191 352.536 442.211 350.246C442.481 349.977 442.75 349.708 443.019 349.303C448.405 349.438 453.792 349.169 459.178 349.169C459.717 349.303 459.717 349.034 459.582 349.034Z" fill="#263238"/>
<path d="M456.889 358.329C456.485 358.329 456.081 358.329 455.677 358.329C455.542 358.329 455.542 358.464 455.677 358.464C456.081 358.464 456.485 358.464 456.889 358.464C457.023 358.464 457.023 358.329 456.889 358.329Z" fill="#263238"/>
<path d="M454.061 358.329C452.445 358.329 450.695 358.329 449.079 358.194C448.271 358.194 447.463 358.194 446.52 358.06C445.712 358.06 444.904 357.925 444.231 358.06C444.096 358.06 444.231 358.194 444.231 358.194C444.904 358.464 445.847 358.329 446.52 358.329C447.328 358.329 448.136 358.329 449.079 358.329C450.695 358.329 452.445 358.329 454.061 358.329C454.196 358.464 454.196 358.329 454.061 358.329Z" fill="#263238"/>
<path d="M439.518 373.955C436.152 373.417 432.651 373.012 429.284 373.012V373.147C432.651 373.417 436.152 373.686 439.518 374.225C439.518 374.225 439.653 373.955 439.518 373.955Z" fill="#263238"/>
<path d="M425.514 359.003C425.514 358.733 425.379 358.464 425.379 358.06C425.244 357.386 425.245 356.712 425.11 356.039C424.975 354.827 424.706 353.479 424.437 352.267C424.437 352.132 424.167 352.132 424.167 352.267C424.302 353.614 424.437 354.827 424.571 356.174C424.571 356.847 424.706 357.521 424.706 358.06C424.706 358.598 424.706 359.407 424.975 359.946C425.11 360.08 425.379 360.08 425.379 359.811C425.648 359.676 425.514 359.407 425.514 359.003Z" fill="#263238"/>
<path d="M493.785 320.88C492.169 317.781 490.014 313.74 485.84 314.009C482.473 314.279 480.858 317.781 480.184 320.61C477.895 329.501 477.76 338.931 477.356 348.091C476.414 367.489 475.606 386.888 475.471 406.151C475.471 411.54 475.471 416.928 475.471 422.316C475.471 427.839 475.471 433.363 475.875 438.751C475.875 439.29 476.683 439.29 476.683 438.751C476.683 434.036 476.549 429.321 476.549 424.741C476.549 420.161 476.549 415.581 476.683 411.001C476.818 401.706 477.087 392.411 477.491 383.25C477.895 374.09 478.299 364.795 478.568 355.635C478.703 351.055 478.972 346.475 479.107 341.894C479.242 337.449 479.511 333.003 480.05 328.558C480.319 326.133 480.723 323.574 481.262 321.149C481.665 319.398 482.204 317.512 483.416 316.165C485.032 314.413 487.59 314.548 489.476 315.761C491.495 316.973 492.707 319.128 493.785 321.149C493.65 321.014 493.919 320.88 493.785 320.88Z" fill="#263238"/>
<path d="M492.707 319.398C492.707 319.398 489.341 307.409 496.882 313.336C509.405 323.304 509.809 345.128 509.809 345.128C509.809 345.128 487.456 332.195 484.763 323.574C480.588 310.911 492.707 319.398 492.707 319.398Z" fill="#B68C5A"/>
<path d="M505.096 336.237C504.826 335.967 504.692 335.563 504.422 335.294C504.422 335.024 504.422 334.62 504.422 334.216C504.422 333.677 504.422 333.138 504.422 332.6C504.422 331.522 504.422 330.579 504.557 329.501C504.557 329.366 504.288 329.366 504.288 329.501C504.288 330.444 504.153 331.522 504.153 332.465C504.153 333.004 504.153 333.408 504.153 333.947C504.153 334.081 504.153 334.351 504.153 334.62C503.21 333.273 502.403 331.926 501.46 330.579C501.191 330.175 500.921 329.771 500.652 329.501C500.383 328.154 500.517 326.807 500.652 325.595C500.652 324.247 500.652 322.766 500.787 321.419C500.787 321.284 500.517 321.284 500.517 321.419C500.517 322.9 500.383 324.382 500.383 325.729C500.383 326.807 500.248 327.75 500.248 328.828C498.094 325.864 495.804 323.035 493.515 320.206C493.381 320.071 493.246 320.206 493.381 320.341C494.862 322.092 496.208 323.978 497.555 325.864C494.996 325.19 492.303 324.921 489.61 324.517C489.476 324.517 489.476 324.652 489.61 324.786C492.438 325.19 495.266 325.864 497.959 326.538C499.036 328.019 500.113 329.501 501.191 331.118C501.595 331.791 501.999 332.33 502.403 333.004H502.268C501.999 333.004 501.729 332.869 501.46 332.869C500.787 332.734 500.248 332.734 499.575 332.734C498.228 332.6 497.016 332.6 495.67 332.465C495.535 332.465 495.535 332.734 495.67 332.734C496.882 332.734 498.228 332.869 499.44 333.004C500.113 333.138 500.787 333.138 501.46 333.273C501.729 333.273 501.999 333.408 502.268 333.408C502.403 333.408 502.403 333.408 502.537 333.408C503.211 334.485 504.018 335.563 504.692 336.506C505.904 338.392 507.116 340.413 508.462 342.164C508.597 342.299 508.731 342.164 508.597 342.029C507.654 340.009 506.308 338.123 505.096 336.237Z" fill="#263238"/>
<path d="M499.575 322.631C499.575 322.227 499.575 321.688 499.575 321.284C499.575 320.341 499.575 319.263 499.709 318.32C499.709 318.186 499.44 318.186 499.44 318.32C499.44 319.263 499.305 320.206 499.305 321.284C499.305 321.823 499.305 322.227 499.305 322.766C499.305 323.035 499.305 323.17 499.305 323.439C499.305 323.709 499.305 323.978 499.305 324.113C499.305 324.248 499.44 324.248 499.44 324.113C499.44 323.843 499.44 323.709 499.44 323.439C499.575 323.035 499.575 322.9 499.575 322.631Z" fill="#263238"/>
<path d="M496.882 327.615C496.074 327.481 495.266 327.481 494.323 327.346C493.381 327.211 492.438 327.211 491.63 327.076C491.495 327.076 491.495 327.211 491.63 327.346C493.381 327.481 495.131 327.75 496.882 327.885C496.882 327.75 496.882 327.615 496.882 327.615Z" fill="#263238"/>
<path d="M503.884 327.615C503.884 327.75 503.884 328.019 503.884 328.019V328.423C503.884 328.693 503.884 328.962 503.884 329.232C503.884 329.501 503.884 329.771 503.884 330.04C503.884 330.309 503.884 330.579 503.884 330.714H504.018C504.018 330.579 504.018 330.444 504.018 330.309C504.018 330.175 504.018 330.04 504.018 329.905C504.018 329.636 504.018 329.366 504.018 329.097C504.018 328.828 504.018 328.558 504.018 328.289V327.885C504.018 327.75 504.018 327.48 504.018 327.48C504.153 327.48 503.749 327.48 503.884 327.615Z" fill="#263238"/>
<path d="M494.323 385.136C489.61 381.634 485.436 376.515 479.107 376.245C473.855 375.976 470.22 380.017 468.2 384.328C467.123 386.618 466.315 389.043 465.641 391.468C464.699 394.701 463.756 398.068 462.948 401.436C461.332 408.037 459.851 414.638 458.774 421.239C458.101 425.011 457.562 428.648 457.023 432.42C456.485 436.191 455.946 440.098 455.946 443.87C455.946 444.543 457.023 444.678 457.158 444.005C457.831 440.906 458.101 437.673 458.505 434.575C458.909 431.342 459.447 428.244 459.986 425.011C461.063 418.679 462.275 412.348 463.756 406.151C465.103 400.224 466.449 394.297 468.335 388.504C469.681 384.328 471.836 379.613 476.279 378.131C483.012 375.841 489.206 381.634 494.189 385.271C494.323 385.271 494.458 385.136 494.323 385.136Z" fill="#263238"/>
<path d="M489.476 381.769C489.476 381.769 485.167 369.375 491.361 366.95C500.787 363.313 525.294 390.929 520.447 433.363C520.447 433.363 501.46 422.855 487.456 411.135C473.451 399.416 469.816 384.059 476.01 380.017C482.339 376.111 489.476 381.769 489.476 381.769Z" fill="#B68C5A"/>
<path d="M517.753 424.202C517.215 422.72 516.272 421.373 515.464 419.892C514.656 418.41 513.848 417.063 513.04 415.581C511.425 412.752 509.809 410.058 508.058 407.229C507.789 406.825 507.52 406.286 507.25 405.882C507.25 405.747 507.25 405.612 507.385 405.343C507.519 404.939 507.52 404.535 507.654 404.13C507.923 403.187 508.058 402.244 508.193 401.301C508.597 399.55 508.866 397.664 509.27 395.913C509.27 395.778 509.135 395.778 509.001 395.913C508.597 397.664 508.058 399.55 507.519 401.301C507.25 402.11 506.981 403.053 506.712 403.861C506.577 404.13 506.577 404.4 506.442 404.804C504.422 401.436 502.403 398.203 500.113 394.97C500.248 394.566 500.248 394.027 500.383 393.623C500.383 392.949 500.517 392.411 500.652 391.737C500.787 390.39 500.921 388.908 501.191 387.561C501.595 384.867 501.999 382.173 502.672 379.478C502.672 379.344 502.537 379.344 502.403 379.478C501.729 382.173 501.056 384.867 500.517 387.561C500.248 388.908 499.979 390.255 499.844 391.602C499.709 392.276 499.709 392.949 499.575 393.623C499.575 393.758 499.575 394.027 499.44 394.297C498.767 393.354 498.094 392.411 497.42 391.468C495.266 388.639 492.977 385.81 490.687 383.116C490.553 382.981 490.418 383.116 490.553 383.25C494.592 388.1 497.824 393.488 501.191 398.877C501.864 399.82 502.403 400.897 503.076 401.84C502.807 401.84 502.672 401.84 502.403 401.706C501.595 401.571 500.787 401.571 499.979 401.436C498.363 401.302 496.747 401.167 495.131 401.032C491.899 400.763 488.802 400.628 485.571 400.224C485.436 400.224 485.436 400.359 485.571 400.493C488.802 400.897 492.034 401.436 495.266 401.84C496.882 402.11 498.363 402.244 499.979 402.514C501.056 402.649 502.403 402.918 503.614 402.918C504.826 404.939 506.173 406.959 507.385 408.98C507.116 408.98 506.846 408.98 506.577 408.98C506.038 408.98 505.5 408.98 504.961 408.98C504.018 408.98 502.941 408.98 501.999 408.98C499.979 408.98 497.824 408.98 495.804 408.98C495.67 408.98 495.67 409.249 495.804 409.249C497.824 409.249 499.979 409.384 501.999 409.519C502.941 409.519 504.018 409.654 504.961 409.654C505.5 409.654 505.904 409.788 506.442 409.788C506.846 409.788 507.385 409.923 507.789 409.788C508.866 411.539 509.943 413.291 511.021 415.042C511.963 416.658 513.04 418.275 513.983 419.757C515.06 421.373 516.003 423.125 517.215 424.606C517.619 424.472 517.753 424.337 517.753 424.202Z" fill="#263238"/>
<path d="M508.731 389.986C508.597 391.333 508.193 392.68 507.923 394.027C507.52 395.374 507.116 396.721 506.712 398.069C506.712 398.203 506.846 398.338 506.981 398.203C507.385 396.856 507.789 395.509 508.058 394.162C508.327 392.815 508.597 391.468 508.866 390.121C508.866 389.851 508.731 389.851 508.731 389.986Z" fill="#263238"/>
<path d="M494.727 398.338C494.458 398.068 494.054 398.068 493.65 397.934C493.111 397.799 492.438 397.799 491.899 397.664C490.822 397.53 489.745 397.395 488.533 397.26C486.244 396.991 483.955 396.721 481.666 396.452C481.531 396.452 481.531 396.587 481.666 396.721C483.82 396.991 485.974 397.26 488.129 397.664C489.206 397.799 490.283 397.934 491.361 398.068C491.899 398.068 492.438 398.203 492.842 398.203C493.381 398.203 494.054 398.203 494.592 398.473C494.727 398.473 494.862 398.338 494.727 398.338Z" fill="#263238"/>
<path d="M508.597 416.928C507.519 416.793 506.442 416.793 505.365 416.793C504.826 416.793 504.288 416.793 503.749 416.793C503.48 416.793 503.21 416.793 502.941 416.793C502.672 416.793 502.268 416.793 501.864 416.793C501.729 416.793 501.729 417.063 501.864 417.063C502.133 417.063 502.537 417.063 502.807 417.063C503.076 417.063 503.345 417.063 503.614 417.063C504.153 417.063 504.692 417.063 505.23 417.197C506.308 417.197 507.385 417.332 508.462 417.332C508.731 417.197 508.731 416.928 508.597 416.928Z" fill="#263238"/>
<path d="M515.33 412.213C515.464 411.539 515.599 411.001 515.734 410.327C516.003 409.115 516.138 407.902 516.407 406.69C516.407 406.555 516.272 406.555 516.137 406.69C515.868 407.902 515.599 409.115 515.33 410.192C515.195 410.731 515.06 411.405 514.926 411.944C514.926 412.213 514.791 412.482 514.791 412.752C514.791 413.021 514.656 413.291 514.656 413.56C514.656 413.695 514.791 413.695 514.926 413.695C515.195 413.291 515.195 412.617 515.33 412.213Z" fill="#263238"/>
<path d="M451.099 439.155L452.445 454.108L456.889 504.894H496.612L502.268 454.108L503.884 439.155H451.099Z" fill="#37474F"/>
<path d="M451.099 439.155L452.445 454.108H502.268L503.884 439.155H451.099Z" fill="#263238"/>
<path d="M447.228 447.242H507.823V435.119H447.228V447.242Z" fill="#37474F"/>
<path d="M236.591 389.312C236.591 367.759 240.092 348.361 247.094 331.252C254.096 314.144 268.639 299.191 290.588 286.394C297.186 282.487 305.266 277.907 314.961 272.923C324.656 267.804 334.082 261.877 343.373 254.737C352.665 247.732 360.475 239.515 366.804 229.95C373.133 220.521 376.364 209.609 376.364 197.216C376.364 187.921 374.614 179.838 371.113 172.833C367.612 165.828 363.033 159.901 357.243 155.051C351.453 150.202 344.855 146.565 337.179 144.14C329.504 141.715 321.694 140.503 313.749 140.503C304.054 140.503 295.301 142.119 287.356 145.487C279.412 148.855 272.275 153.031 265.946 158.015C259.617 163.134 253.827 168.792 248.845 175.123C243.728 181.455 239.554 187.517 235.918 193.309H225.953L178.42 153.57C184.075 139.964 191.751 127.84 201.176 117.198C210.602 106.69 221.375 97.6649 233.494 90.5253C245.613 83.2509 258.675 77.7278 272.814 73.9559C286.953 70.184 301.361 68.2981 316.308 68.2981C333.005 68.2981 349.568 70.7229 365.861 75.5724C382.155 80.422 396.832 88.1005 409.759 98.7426C422.686 109.25 433.324 122.856 441.403 139.29C449.483 155.86 453.657 175.527 453.657 198.428C453.657 212.573 452.041 224.966 448.675 235.743C445.308 246.52 440.595 256.353 434.536 265.11C428.342 273.866 421.07 281.814 412.721 288.819C404.373 295.824 394.947 302.694 384.309 309.295C375.556 314.548 366.669 319.667 357.916 324.517C349.164 329.366 341.084 334.755 333.813 340.682C326.541 346.609 320.617 353.48 316.038 361.158C311.46 368.836 309.171 378.266 309.171 389.178H236.591V389.312ZM237.803 543.151V452.087H311.056V543.151H237.803Z" fill="#B68C5A"/>
<g opacity="0.2">
<path d="M236.591 389.312C236.591 367.759 240.092 348.361 247.094 331.252C254.096 314.144 268.639 299.191 290.588 286.394C297.186 282.487 305.266 277.907 314.961 272.923C324.656 267.804 334.082 261.877 343.373 254.737C352.665 247.732 360.475 239.515 366.804 229.95C373.133 220.521 376.364 209.609 376.364 197.216C376.364 187.921 374.614 179.838 371.113 172.833C367.612 165.828 363.033 159.901 357.243 155.051C351.453 150.202 344.855 146.565 337.179 144.14C329.504 141.715 321.694 140.503 313.749 140.503C304.054 140.503 295.301 142.119 287.356 145.487C279.412 148.855 272.275 153.031 265.946 158.015C259.617 163.134 253.827 168.792 248.845 175.123C243.728 181.455 239.554 187.517 235.918 193.309H225.953L178.42 153.57C184.075 139.964 191.751 127.84 201.176 117.198C210.602 106.69 221.375 97.6649 233.494 90.5253C245.613 83.2509 258.675 77.7278 272.814 73.9559C286.953 70.184 301.361 68.2981 316.308 68.2981C333.005 68.2981 349.568 70.7229 365.861 75.5724C382.155 80.422 396.832 88.1005 409.759 98.7426C422.686 109.25 433.324 122.856 441.403 139.29C449.483 155.86 453.657 175.527 453.657 198.428C453.657 212.573 452.041 224.966 448.675 235.743C445.308 246.52 440.595 256.353 434.536 265.11C428.342 273.866 421.07 281.814 412.721 288.819C404.373 295.824 394.947 302.694 384.309 309.295C375.556 314.548 366.669 319.667 357.916 324.517C349.164 329.366 341.084 334.755 333.813 340.682C326.541 346.609 320.617 353.48 316.038 361.158C311.46 368.836 309.171 378.266 309.171 389.178H236.591V389.312ZM237.803 543.151V452.087H311.056V543.151H237.803Z" fill="black"/>
</g>
<path d="M226.627 389.312C226.627 367.759 230.128 348.361 237.13 331.252C244.132 314.144 258.675 299.191 280.624 286.394C287.222 282.487 295.301 277.907 304.996 272.923C314.692 267.804 324.118 261.877 333.409 254.737C342.7 247.732 350.51 239.515 356.839 229.95C363.168 220.521 366.4 209.609 366.4 197.216C366.4 187.921 364.649 179.838 361.148 172.833C357.647 165.828 353.069 159.901 347.279 155.051C341.488 150.202 334.89 146.565 327.215 144.14C319.539 141.715 311.729 140.503 303.785 140.503C294.089 140.503 285.337 142.119 277.392 145.487C269.447 148.855 262.31 153.031 255.982 158.015C249.653 163.134 243.863 168.792 238.88 175.123C233.763 181.455 229.589 187.517 225.953 193.309L168.59 153.57C174.245 139.964 181.921 127.84 191.347 117.198C200.773 106.69 211.545 97.6649 223.664 90.5253C235.783 83.2509 248.845 77.7278 262.984 73.9559C277.123 70.184 291.531 68.2981 306.478 68.2981C323.175 68.2981 339.738 70.7229 356.031 75.5724C372.325 80.422 387.002 88.1005 399.929 98.7426C412.856 109.25 423.494 122.856 431.573 139.29C439.653 155.86 443.827 175.527 443.827 198.428C443.827 212.573 442.211 224.966 438.845 235.743C435.478 246.52 430.765 256.353 424.706 265.11C418.512 273.866 411.24 281.814 402.892 288.819C394.543 295.824 385.117 302.694 374.479 309.295C365.726 314.548 356.839 319.667 348.086 324.517C339.334 329.366 331.254 334.755 323.983 340.682C316.712 346.609 310.787 353.48 306.208 361.158C301.63 368.836 299.341 378.266 299.341 389.178H226.627V389.312ZM227.973 543.151V452.087H301.226V543.151H227.973Z" fill="#B68C5A"/>
<path d="M196.463 550.426C193.636 551.369 111.765 550.291 108.668 548.27C107.456 547.462 106.917 535.608 106.648 521.194C106.648 521.059 106.648 520.924 106.648 520.79C106.648 517.826 106.513 514.728 106.513 511.629C106.513 511.225 106.513 510.821 106.513 510.282C106.378 489.402 106.782 467.848 106.782 467.848L161.453 468.387L159.837 510.417V512.033L159.568 520.79V521.732C159.568 521.732 190.673 536.146 193.905 538.706C196.867 541.265 199.291 549.483 196.463 550.426Z" fill="#AD6359"/>
<path d="M196.463 550.426C193.636 551.369 111.765 550.291 108.668 548.27C107.456 547.462 106.917 535.608 106.648 521.194C106.648 521.059 106.648 520.924 106.648 520.789C106.648 517.826 106.513 514.727 106.513 511.629C106.513 511.225 106.513 510.821 106.513 510.282L159.837 510.417V512.033L159.568 520.789V521.732C159.568 521.732 190.673 536.146 193.905 538.706C196.867 541.265 199.291 549.483 196.463 550.426Z" fill="#EBEBEB"/>
<path d="M196.464 550.426C194.713 550.965 163.069 550.83 138.157 550.156C122.672 549.752 109.88 549.079 108.668 548.27C107.456 547.597 106.917 535.877 106.782 521.732C106.782 521.598 106.782 521.328 106.782 521.194C106.782 521.059 106.782 520.924 106.782 520.79L159.568 520.924V521.867C159.568 521.867 190.673 536.281 193.905 538.841C196.867 541.265 199.291 549.483 196.464 550.426Z" fill="#B68C5A"/>
<path d="M195.521 547.193C181.786 546.654 126.173 545.846 112.438 546.384C112.303 546.384 112.303 546.519 112.438 546.519C126.038 547.327 181.786 547.732 195.521 547.462C195.79 547.462 195.79 547.193 195.521 547.193Z" fill="#263238"/>
<path d="M165.358 521.059C159.972 519.981 153.239 520.79 149.064 524.561C148.93 524.696 149.064 524.966 149.334 524.831C154.72 523.214 159.702 522.137 165.358 521.733C165.762 521.733 165.762 521.059 165.358 521.059Z" fill="#263238"/>
<path d="M169.263 523.484C163.877 522.406 157.144 523.214 152.97 526.986C152.835 527.121 152.97 527.39 153.239 527.256C158.625 525.639 163.607 524.561 169.263 524.157C169.667 524.023 169.667 523.484 169.263 523.484Z" fill="#263238"/>
<path d="M173.168 525.909C167.782 524.831 161.049 525.639 156.875 529.411C156.74 529.546 156.875 529.815 157.144 529.681C162.53 528.064 167.512 526.986 173.168 526.582C173.437 526.447 173.572 525.909 173.168 525.909Z" fill="#263238"/>
<path d="M172.629 509.339C170.475 506.376 166.57 507.588 164.281 509.474C160.51 512.572 157.279 517.287 155.797 521.732C155.797 521.867 155.797 521.867 155.932 521.867C155.932 522.271 156.336 522.675 156.74 522.541C161.184 520.924 166.301 519.847 170.071 516.883C172.36 515.266 174.515 512.033 172.629 509.339ZM162.934 518.904C160.78 519.712 158.49 520.52 156.336 521.463C157.952 519.038 159.568 516.613 161.453 514.323C162.395 513.246 163.338 512.168 164.415 511.225C166.031 509.743 172.495 506.78 171.417 512.707C170.879 515.94 165.627 517.826 162.934 518.904Z" fill="#263238"/>
<path d="M141.928 520.116C146.371 522.137 151.488 522.002 156.201 522.541C156.74 522.541 157.009 522.137 156.875 521.733C157.009 521.733 157.009 521.598 157.009 521.463C154.451 517.422 150.142 513.515 145.833 511.495C143.14 510.147 138.965 509.878 137.619 513.246C136.407 516.479 139.369 519.038 141.928 520.116ZM139.504 516.344C137.08 510.821 144.082 512.303 145.967 513.381C147.179 514.054 148.391 514.862 149.468 515.671C151.892 517.422 153.912 519.442 156.067 521.328C153.777 520.924 151.354 520.79 149.065 520.385C146.371 519.981 140.85 519.308 139.504 516.344Z" fill="#263238"/>
<path d="M138.157 550.156C122.672 549.752 109.88 549.079 108.668 548.27C107.456 547.597 106.917 535.877 106.782 521.732C113.111 527.39 128.866 541.535 138.157 550.156Z" fill="#263238"/>
<path d="M90.0851 232.106C90.0851 232.106 102.339 370.318 104.359 380.96C104.763 383.385 105.167 396.452 105.301 413.291C105.705 449.932 105.436 516.075 105.436 516.075H163.069C163.069 516.075 161.318 401.571 158.76 380.422C156.201 359.272 139.908 232.24 139.908 232.24H90.0851V232.106Z" fill="#37474F"/>
<path d="M160.51 505.972C151.488 505.837 154.047 505.702 145.159 505.567C140.716 505.567 111.765 505.298 107.725 505.972C107.59 505.972 107.59 506.106 107.725 506.106C111.899 506.78 140.716 506.51 145.159 506.51C154.181 506.376 151.623 506.376 160.51 506.106C160.645 506.241 160.645 505.972 160.51 505.972Z" fill="#263238"/>
<path d="M116.343 440.502C116.343 432.15 116.208 423.798 116.208 415.446C116.208 407.364 116.208 399.281 115.804 391.198C114.996 374.764 111.765 358.733 109.341 342.433C106.917 326.268 105.032 309.968 103.281 293.668C101.262 275.348 99.511 257.162 97.6258 238.841C97.6258 238.707 97.3565 238.707 97.4911 238.841C100.184 271.441 103.281 304.176 107.725 336.641C108.802 344.723 110.014 352.806 111.361 360.754C112.707 368.837 114.054 377.054 114.727 385.271C115.4 393.354 115.4 401.436 115.535 409.519C115.67 417.871 115.67 426.223 115.804 434.575C115.939 453.165 116.208 481.724 116.343 500.314C116.343 500.718 116.882 500.718 116.882 500.314C116.612 483.61 116.478 457.072 116.343 440.502Z" fill="#263238"/>
<path d="M77.8313 232.106C77.8313 232.106 102.204 370.318 104.224 380.96C104.628 383.385 105.032 396.452 105.167 413.291L132.636 232.24H77.8313V232.106Z" fill="#263238"/>
<path d="M129.539 555.275C126.577 555.949 45.1098 549.079 42.1474 546.923C41.0702 546.115 41.3395 534.126 42.1474 519.712C42.1474 519.577 42.1474 519.442 42.1474 519.308C42.2821 516.344 42.4167 513.246 42.686 510.147C42.686 509.743 42.686 509.339 42.8207 508.935C44.1673 488.19 46.0524 466.636 46.0524 466.636L100.588 471.081L96.0099 512.842L95.8753 514.458L94.9327 523.08L94.798 524.023C94.798 524.023 124.826 540.592 127.789 543.421C130.617 546.115 132.367 554.602 129.539 555.275Z" fill="#AD6359"/>
<path d="M129.539 555.275C126.577 555.949 45.1098 549.079 42.1474 546.923C41.0702 546.115 41.3395 534.126 42.1474 519.712C42.1474 519.577 42.1474 519.442 42.1474 519.308C42.2821 516.344 42.4167 513.246 42.686 510.147C42.686 509.743 42.686 509.339 42.8207 508.935L96.0099 512.842L95.8753 514.458L94.9327 523.08L94.798 524.023C94.798 524.023 124.826 540.592 127.789 543.421C130.617 546.115 132.367 554.602 129.539 555.275Z" fill="#EBEBEB"/>
<path d="M129.539 555.275C126.577 555.949 45.1098 549.079 42.1474 546.923C41.0702 546.115 41.3395 534.126 42.1474 519.712C42.1474 519.577 42.1474 519.442 42.1474 519.308L94.798 523.079L94.6634 524.022C94.6634 524.022 124.692 540.592 127.654 543.421C130.617 546.115 132.367 554.602 129.539 555.275Z" fill="#B68C5A"/>
<path d="M128.866 552.042C115.131 550.56 59.6527 545.846 46.0524 545.441C45.9178 545.441 45.9178 545.576 46.0524 545.576C59.6527 547.327 115.131 551.638 128.866 552.312C129.135 552.312 129.135 552.042 128.866 552.042Z" fill="#263238"/>
<path d="M100.588 523.753C95.202 522.271 88.6038 522.541 84.1602 526.043C84.0255 526.178 84.1602 526.447 84.4295 526.447C89.9504 525.235 94.9327 524.561 100.588 524.427C100.858 524.427 100.992 523.888 100.588 523.753Z" fill="#263238"/>
<path d="M104.224 526.447C98.8377 524.965 92.2395 525.235 87.7959 528.737C87.6612 528.872 87.7959 529.141 88.0652 529.141C93.5861 527.929 98.5684 527.256 104.224 527.121C104.628 527.121 104.628 526.582 104.224 526.447Z" fill="#263238"/>
<path d="M107.994 529.141C102.608 527.66 96.0099 527.929 91.5663 531.431C91.4316 531.566 91.5663 531.836 91.8356 531.836C97.3565 530.623 102.339 529.95 107.994 529.815C108.264 529.815 108.398 529.276 107.994 529.141Z" fill="#263238"/>
<path d="M108.533 512.572C106.648 509.474 102.608 510.417 100.184 512.168C96.2792 514.997 92.6435 519.442 90.7583 523.888C90.7583 524.022 90.7583 524.022 90.893 524.157C90.893 524.561 91.1623 525.1 91.7009 524.965C96.2792 523.753 101.396 522.945 105.436 520.251C107.86 518.499 110.418 515.536 108.533 512.572ZM98.2991 521.463C96.0099 522.137 93.7208 522.675 91.5663 523.484C93.4515 521.194 95.0673 518.903 97.2218 516.748C98.1644 515.805 99.2417 514.727 100.319 513.919C102.069 512.572 108.668 510.013 107.186 515.805C106.513 519.038 100.992 520.655 98.2991 521.463Z" fill="#263238"/>
<path d="M77.2927 521.328C81.6017 523.618 86.7186 523.888 91.4316 524.831C91.9702 524.965 92.2395 524.426 92.1049 524.022C92.2395 524.022 92.2395 523.888 92.2395 523.753C89.9504 519.577 86.0454 515.401 81.871 512.976C79.3125 511.494 75.1382 510.821 73.5223 514.189C72.0411 517.152 74.7342 519.981 77.2927 521.328ZM75.1382 517.152C73.1183 511.494 79.9858 513.38 81.871 514.593C83.0829 515.401 84.1602 516.209 85.2374 517.152C87.5266 519.038 89.4118 521.193 91.4316 523.349C89.1424 522.81 86.8533 522.406 84.5641 522.002C81.7364 521.463 76.2154 520.385 75.1382 517.152Z" fill="#263238"/>
<path d="M97.0872 519.038L39.4543 516.614C39.4543 516.614 55.2091 390.121 55.4784 382.442C56.2863 362.236 69.6173 232.106 69.6173 232.106H140.043C140.043 232.106 135.599 262.146 128.058 281.14C128.058 281.14 122.268 282.891 113.381 287.876C113.381 287.876 106.782 373.956 106.513 384.732C105.974 406.017 97.0872 519.038 97.0872 519.038Z" fill="#37474F"/>
<path d="M95.6059 508.531C86.584 507.992 89.2771 507.992 80.2551 507.588C75.8115 507.319 46.995 505.837 42.8207 506.376C42.686 506.376 42.686 506.51 42.8207 506.51C46.8604 507.319 75.8115 508.396 80.2551 508.531C89.2771 508.8 86.7186 508.666 95.6059 508.8C95.7406 508.8 95.7406 508.531 95.6059 508.531Z" fill="#263238"/>
<path d="M74.8689 239.784C72.3104 272.519 69.6173 305.388 66.5202 338.123C63.5578 370.992 60.0567 403.861 55.7477 436.461C53.3239 454.782 50.7654 480.511 47.803 498.697C47.803 498.832 47.9376 498.832 47.9376 498.697C53.7279 466.367 58.0369 426.223 61.6726 393.489C65.3083 360.754 68.2707 328.019 70.9639 295.285C72.4451 276.695 73.7916 258.24 75.2729 239.65C75.2729 239.515 74.8689 239.515 74.8689 239.784Z" fill="#263238"/>
<path d="M130.482 279.928C124.557 281.948 118.767 284.912 113.246 288.01C112.977 288.145 113.111 288.415 113.381 288.415C119.171 285.855 125.096 283.565 130.751 280.736C131.29 280.332 130.886 279.793 130.482 279.928Z" fill="#263238"/>
<path d="M132.367 240.054C132.367 239.919 131.963 239.784 131.963 240.054C131.963 246.924 131.559 252.986 131.021 259.452C130.751 262.416 128.327 278.985 123.21 277.773C122.403 277.638 121.864 276.695 121.729 275.348C121.595 273.731 122.133 271.845 122.403 270.229C122.941 266.726 123.48 263.359 123.749 259.856C124.288 253.39 124.288 246.789 123.48 240.323C123.48 240.054 123.21 240.188 123.21 240.323C123.21 249.349 122.941 258.374 121.595 267.265C120.921 271.576 118.767 278.042 123.21 278.716C127.789 279.389 130.751 268.612 131.29 265.649C132.906 257.431 133.04 248.406 132.367 240.054Z" fill="#263238"/>
<path d="M123.21 278.177C122.807 279.254 122.403 280.467 121.999 281.544C121.729 282.487 121.46 283.43 121.46 284.373C121.46 284.508 121.729 284.508 121.864 284.508C122.537 283.7 122.672 282.622 123.076 281.814C123.48 280.736 123.884 279.659 124.288 278.581C124.557 277.907 123.614 277.503 123.21 278.177Z" fill="#263238"/>
<path d="M99.7803 245.442C99.7803 244.769 99.7803 243.96 99.511 243.287C99.511 243.152 99.3763 243.152 99.2417 243.287C99.107 243.826 99.107 244.499 98.9724 245.173C98.8377 245.846 98.8377 246.655 98.703 247.328C98.5684 248.81 98.2991 250.292 97.8951 251.639C97.2218 254.333 95.8753 256.758 93.9901 258.778C92.1049 260.664 89.8157 262.146 87.2573 263.224C84.4295 264.436 81.6017 264.84 78.6393 265.649C78.5046 265.649 78.5046 265.918 78.6393 265.918C81.7364 266.053 85.1028 265.245 87.9305 264.032C90.489 263.089 92.9128 261.607 94.9327 259.587C96.9525 257.566 98.2991 255.007 98.9724 252.312C99.3763 250.831 99.511 249.483 99.511 248.002C99.915 247.059 99.9149 246.25 99.7803 245.442Z" fill="#263238"/>
<path d="M168.59 113.83C172.899 119.084 177.612 133.228 177.477 137.135C177.342 141.041 153.508 149.798 150.142 147.642C146.775 145.487 133.579 126.762 133.444 119.757C133.31 112.752 164.146 108.307 168.59 113.83Z" fill="#AD6359"/>
<path d="M132.906 104.131C130.751 101.841 123.614 95.1053 120.517 98.069C118.498 99.9549 123.345 105.209 125.23 107.229C129.405 111.54 132.502 119.084 133.983 122.721C135.464 126.358 142.466 119.084 142.466 119.084C142.466 119.084 138.561 110.058 132.906 104.131Z" fill="#AD6359"/>
<path d="M138.561 126.897C138.561 126.897 140.985 133.498 145.025 133.363C148.795 133.228 147.987 127.571 147.987 127.166C148.122 127.571 150.546 133.498 154.451 132.959C158.625 132.42 156.74 126.897 156.605 126.493C156.875 126.762 159.837 130.534 162.799 129.456C167.782 127.571 160.241 117.737 161.049 113.426C161.049 113.426 168.455 113.83 168.724 113.83C168.724 113.83 161.722 104.4 155.932 103.727C152.835 103.323 151.892 106.152 151.892 106.152C151.892 106.152 150.007 102.784 146.775 103.188C145.159 103.323 143.948 106.152 143.948 106.152C143.948 106.152 142.332 103.592 139.504 103.996C137.349 104.4 136.137 107.095 136.003 108.172C135.06 116.39 138.561 126.897 138.561 126.897Z" fill="#AD6359"/>
<path d="M136.272 107.364C135.06 113.83 135.734 121.239 138.561 127.166C138.696 127.301 138.965 127.301 138.965 127.031C137.215 120.431 136.137 114.369 136.272 107.364Z" fill="#263238"/>
<path d="M143.948 105.882C143.948 105.747 143.813 105.747 143.813 105.882C142.601 112.483 143.678 120.835 147.853 127.301C147.987 127.57 148.391 127.57 148.257 127.301C145.698 122.856 143.813 112.213 143.948 105.882Z" fill="#263238"/>
<path d="M157.009 126.762C153.373 120.431 152.027 113.56 151.758 106.286C151.758 106.151 151.623 106.151 151.623 106.286C150.815 109.923 151.488 114.503 152.296 118.006C153.104 121.374 154.451 124.337 156.875 126.897C156.875 127.031 157.144 126.897 157.009 126.762Z" fill="#263238"/>
<path d="M138.561 126.897C139.1 128.109 139.773 129.322 140.581 130.399C141.389 131.477 142.332 132.42 143.544 132.959C144.082 133.228 144.755 133.228 145.294 132.959C145.833 132.69 146.371 132.42 146.775 131.881C147.583 130.938 147.718 129.591 147.449 128.514L146.91 125.55L148.391 128.109C149.064 129.187 149.872 130.265 150.815 131.208C151.758 132.016 152.97 132.69 154.047 132.42C155.259 132.285 156.201 131.477 156.336 130.265C156.605 129.052 156.336 127.705 155.797 126.493L154.585 123.26L156.74 125.954C157.279 126.628 158.086 127.436 158.894 127.975C159.702 128.514 160.51 128.918 161.453 128.918C162.261 128.918 163.203 128.514 163.473 127.84C163.877 127.032 163.877 126.089 163.742 125.146C163.473 123.125 162.665 121.239 162.126 119.353C161.857 118.41 161.453 117.467 161.184 116.39C160.914 115.447 160.645 114.369 160.78 113.291C160.645 114.369 161.049 115.312 161.453 116.255C161.857 117.198 162.126 118.141 162.53 119.084C163.338 120.97 164.011 122.856 164.55 125.011C164.685 126.089 164.819 127.166 164.415 128.244C163.877 129.456 162.665 130.13 161.453 129.995C160.241 129.995 159.164 129.456 158.356 128.783C157.413 128.109 156.74 127.436 155.932 126.628L156.875 126.089C157.413 127.436 157.682 128.918 157.548 130.534C157.413 131.342 157.009 132.151 156.336 132.69C155.663 133.228 154.855 133.498 154.181 133.632C152.566 133.767 151.084 132.959 150.007 132.016C148.93 131.073 148.122 129.861 147.314 128.648L148.257 128.244C148.391 129.726 148.122 131.342 147.179 132.42C146.641 132.959 145.967 133.363 145.294 133.632C144.621 133.902 143.813 133.767 143.14 133.498C141.793 132.824 140.985 131.747 140.177 130.534C139.639 129.456 139.1 128.244 138.561 126.897Z" fill="#263238"/>
<path d="M147.314 144.813C147.314 144.813 121.595 131.747 131.694 124.203C134.656 121.913 149.603 116.39 150.815 119.353C152.296 123.26 146.506 126.762 142.601 128.379C142.601 128.379 152.027 131.612 151.623 138.751C151.488 143.197 147.314 144.813 147.314 144.813Z" fill="#AD6359"/>
<path d="M130.886 124.742C131.963 123.664 133.175 122.856 134.522 122.182C135.868 121.509 137.215 120.835 138.561 120.296C141.389 119.218 144.082 118.275 147.045 117.737C147.853 117.602 148.526 117.467 149.334 117.602C149.738 117.602 150.142 117.737 150.546 118.006C150.815 118.141 150.95 118.275 151.084 118.545C151.219 118.814 151.354 118.949 151.488 119.218C151.892 120.027 151.758 120.97 151.488 121.778C151.219 122.586 150.815 123.26 150.276 123.799C149.199 125.011 147.987 125.819 146.775 126.628C145.429 127.436 144.082 127.975 142.736 128.513V127.57C143.813 127.975 144.755 128.513 145.698 129.052C146.641 129.591 147.583 130.265 148.391 131.073C149.199 131.881 149.872 132.689 150.411 133.767C150.95 134.71 151.354 135.788 151.488 136.865C151.219 135.788 150.68 134.845 150.142 133.902C149.603 132.959 148.795 132.285 147.987 131.612C147.179 130.938 146.237 130.265 145.294 129.861C144.351 129.322 143.409 128.918 142.332 128.648L141.12 128.244L142.332 127.705C143.678 127.166 144.89 126.493 146.102 125.685C147.314 124.876 148.526 124.068 149.334 123.125C150.142 122.182 150.815 120.835 150.411 119.757C150.142 118.814 148.526 118.814 147.179 119.084C145.833 119.353 144.351 119.623 143.005 120.027C141.658 120.431 140.177 120.7 138.831 121.239C136.003 122.047 133.31 122.99 130.886 124.742Z" fill="#263238"/>
<path d="M117.824 163.403C140.581 191.423 173.572 209.609 181.651 203.682C189.731 197.754 162.395 166.771 161.857 166.367C160.241 164.885 148.122 158.554 126.038 149.259C104.359 140.099 107.59 150.875 117.824 163.403Z" fill="#AD6359"/>
<path d="M151.623 160.036L134.522 182.532C134.522 182.532 120.113 167.714 112.573 157.88C105.032 148.046 105.705 140.503 122.672 146.834C139.773 153.165 151.623 160.036 151.623 160.036Z" fill="#B68C5A"/>
<path d="M132.906 177.413C135.06 174.315 137.215 171.351 139.369 168.388C140.446 166.906 141.524 165.424 142.736 164.077C143.948 162.595 145.159 161.248 146.371 159.766C146.506 159.632 146.641 159.766 146.506 159.901C145.429 161.383 144.486 162.865 143.409 164.346C142.332 165.828 141.12 167.31 140.043 168.927C137.753 171.89 135.464 174.854 133.04 177.683C133.04 177.683 132.906 177.548 132.906 177.413Z" fill="#263238"/>
<path d="M142.736 171.755L134.522 182.532C134.522 182.532 120.113 167.714 112.573 157.88C112.303 157.611 112.034 157.207 111.899 156.937C111.765 156.803 111.63 156.668 111.63 156.533C111.495 156.264 111.361 156.129 111.091 155.86C110.687 155.321 110.283 154.647 110.014 154.108C109.88 153.839 109.745 153.704 109.61 153.435C108.937 152.357 108.533 151.145 108.264 150.202C108.129 149.798 108.129 149.528 107.994 149.124C107.994 148.989 107.994 148.72 107.994 148.585C115.535 153.974 133.04 165.289 142.736 171.755Z" fill="#263238"/>
<path d="M143.409 245.981C143.409 245.981 65.4429 247.328 65.039 246.789C63.8271 245.442 79.5818 165.155 95.8752 148.585C101.665 142.793 113.515 145.083 115.4 146.026C119.979 148.181 124.288 153.031 127.923 161.787C135.06 179.703 144.486 244.768 143.409 245.981Z" fill="#B68C5A"/>
<path opacity="0.1" d="M119.305 148.855H95.7406L95.8753 148.72C96.4139 148.181 97.0872 147.642 97.7604 147.238H117.286C117.959 147.642 118.632 148.181 119.305 148.855ZM121.999 151.549H93.4515C93.0475 152.088 92.7782 152.627 92.3742 153.166H123.076C122.807 152.492 122.403 151.953 121.999 151.549ZM124.961 155.86H90.7583C90.489 156.399 90.2197 156.937 89.8157 157.476H125.769C125.5 156.803 125.23 156.264 124.961 155.86ZM127.116 160.17H88.6038C88.3345 160.709 88.0652 161.248 87.7959 161.787H127.789C127.519 161.113 127.385 160.575 127.116 160.17ZM128.866 164.346H86.584C86.3147 164.885 86.18 165.424 85.9107 165.963H129.27C129.135 165.424 129.001 164.885 128.866 164.346ZM130.213 168.657H84.8334C84.5641 169.196 84.4295 169.735 84.1602 170.274H130.617C130.482 169.735 130.347 169.196 130.213 168.657ZM131.29 172.968H83.2176C83.0829 173.507 82.8136 174.046 82.6789 174.584H131.828C131.559 174.046 131.425 173.507 131.29 172.968ZM132.367 177.279H81.6017C81.467 177.817 81.1977 178.356 81.0631 178.895H132.636C132.636 178.356 132.502 177.817 132.367 177.279ZM133.31 181.589H80.2551C80.1205 182.128 79.8512 182.667 79.7165 183.206H133.714C133.579 182.667 133.444 182.128 133.31 181.589ZM134.252 185.9H78.9086C78.7739 186.439 78.5046 186.978 78.3699 187.517H134.522C134.522 186.978 134.387 186.439 134.252 185.9ZM135.06 190.211H77.562C77.4273 190.75 77.2927 191.288 77.158 191.827H135.464C135.33 191.288 135.195 190.75 135.06 190.211ZM136.003 194.522H76.3501C76.2154 195.06 76.0808 195.599 75.9461 196.138H136.272C136.137 195.599 136.003 195.06 136.003 194.522ZM136.811 198.832H75.1382C75.0035 199.371 74.8689 199.91 74.7342 200.449H137.08C136.945 199.91 136.811 199.371 136.811 198.832ZM137.484 203.143H73.9263C73.7916 203.682 73.657 204.221 73.5223 204.76H137.753C137.753 204.221 137.619 203.682 137.484 203.143ZM138.292 207.454H72.849C72.7144 207.993 72.5797 208.531 72.4451 209.07H138.561C138.427 208.531 138.427 207.993 138.292 207.454ZM138.965 211.764H71.7718C71.6371 212.303 71.5025 212.842 71.3678 213.381H139.235C139.235 212.842 139.1 212.303 138.965 211.764ZM139.639 216.075H70.8292C70.6945 216.614 70.5599 217.153 70.4252 217.692H139.908C139.908 217.153 139.773 216.614 139.639 216.075ZM140.312 220.251H69.7519C69.6173 220.79 69.4826 221.329 69.348 221.868H140.446C140.581 221.464 140.446 220.925 140.312 220.251ZM140.985 224.562H68.8093C68.6747 225.101 68.54 225.64 68.4054 226.178H141.12C141.12 225.64 141.12 225.101 140.985 224.562ZM141.658 228.873H67.8668C67.7321 229.411 67.5974 229.95 67.5974 230.489H141.793C141.793 229.95 141.658 229.411 141.658 228.873ZM142.197 233.183H67.0588C66.9242 233.722 66.7895 234.261 66.7895 234.8H142.466C142.332 234.261 142.332 233.722 142.197 233.183ZM142.736 237.494H66.2509C66.1162 238.033 65.9816 238.572 65.9816 239.111H143.005C142.87 238.572 142.87 238.033 142.736 237.494ZM143.274 241.805H65.5776C65.4429 242.344 65.4429 242.882 65.3083 243.421H143.409C143.409 243.017 143.274 242.478 143.274 241.805ZM65.039 246.116C65.039 246.52 65.039 246.789 65.039 246.789C65.4429 247.193 113.785 246.385 134.252 246.116H65.039Z" fill="#030402"/>
<path d="M100.319 158.419C95.0673 165.693 68.1361 195.464 67.1935 198.159C66.2509 200.988 72.4451 207.049 72.3104 208.127C71.9064 212.842 61.8072 243.825 57.7675 240.592C52.5159 236.416 30.0283 206.78 33.1254 193.848C36.3572 181.05 88.7385 150.067 97.0872 147.373C105.436 144.813 105.436 151.279 100.319 158.419Z" fill="#AD6359"/>
<path d="M79.1779 185.496L63.8271 163.942C63.8271 163.942 80.9284 152.761 92.3742 147.912C103.82 143.062 109.476 145.756 98.9723 160.575C88.6038 175.393 79.1779 185.496 79.1779 185.496Z" fill="#B68C5A"/>
<path d="M68.4054 162.595C70.8292 165.424 73.253 168.253 75.4075 171.217C76.4847 172.698 77.6966 174.046 78.7739 175.527C79.8511 177.009 80.9284 178.626 82.1403 180.108C82.275 180.242 82.0057 180.377 82.0057 180.242C80.7937 178.76 79.5818 177.413 78.5046 176.066C77.2927 174.584 76.2154 173.103 75.0035 171.621C72.5797 168.792 70.4252 165.828 68.4054 162.595C68.2707 162.595 68.1361 162.595 68.4054 162.595Z" fill="#263238"/>
<path d="M79.1779 185.631C81.467 182.532 84.2948 179.703 86.8533 176.74C89.4118 173.776 91.9702 170.813 94.2594 167.714C94.2594 167.58 94.394 167.714 94.394 167.849C93.3168 169.465 92.2395 171.082 91.0276 172.564C90.489 173.372 89.8157 174.046 89.2771 174.854C89.5464 174.584 89.8157 174.315 90.2197 174.18C91.1623 173.507 92.1049 172.833 93.0475 172.294C93.0475 172.294 93.1821 172.294 93.0475 172.429C92.2395 173.237 91.2969 173.911 90.3543 174.719C89.6811 175.258 89.0078 175.662 88.3345 176.201C87.9305 176.605 87.6612 177.009 87.2573 177.548C84.8334 180.512 82.275 183.61 79.3125 186.035C79.1779 185.9 79.0432 185.765 79.1779 185.631Z" fill="#263238"/>
<path d="M70.9638 252.447C74.5996 250.022 69.6173 247.193 69.6173 247.193C69.6173 247.193 77.6967 249.618 80.3898 245.577C83.0829 241.805 76.8887 238.572 76.4847 238.302C76.8887 238.437 84.4295 240.458 86.7186 236.147C89.1424 231.701 82.5443 229.546 82.0057 229.411C82.4096 229.411 88.3345 229.142 89.2771 225.505C91.0276 219.308 74.3302 218.5 70.6945 214.728C70.6945 214.728 72.3104 206.511 72.4451 206.241C72.4451 206.241 70.5599 209.474 67.7321 210.283C64.0964 211.36 60.8646 211.899 59.3834 213.65C56.9596 216.479 58.8448 219.308 58.8448 219.308C58.8448 219.308 54.2665 218.769 52.3813 222.002C51.4387 223.754 53.1892 226.852 53.1892 226.852C53.1892 226.852 49.5535 226.582 47.9376 229.546C46.7257 231.971 48.7456 234.665 48.7456 234.665C48.7456 234.665 45.1098 236.012 44.5712 238.976C43.7633 244.903 63.2884 257.7 70.9638 252.447Z" fill="#AD6359"/>
<path d="M49.0149 235.338C48.8802 235.338 49.0149 235.204 49.0149 235.338C54.2665 241.131 61.9419 245.846 69.7519 247.328C70.0212 247.328 70.1559 246.924 69.8866 246.924C62.3458 243.825 55.7477 240.457 49.0149 235.338Z" fill="#263238"/>
<path d="M53.1892 226.852C53.0546 226.852 53.0546 226.987 53.1892 226.852C58.7101 232.914 67.4628 237.898 76.6194 238.572C76.8887 238.572 77.2927 238.302 76.8887 238.302C70.8292 237.359 59.1141 231.567 53.1892 226.852Z" fill="#263238"/>
<path d="M82.8136 229.277C74.0609 228.334 66.5202 224.562 59.2487 219.577C59.1141 219.577 59.1141 219.712 59.1141 219.712C61.9419 223.08 66.9241 225.774 70.9638 227.525C74.8689 229.142 78.6392 229.95 82.8136 229.546C82.9482 229.546 82.9482 229.277 82.8136 229.277Z" fill="#263238"/>
<path d="M48.6109 234.8C47.2643 233.183 46.4564 231.163 47.2643 229.007C47.6683 228.064 48.3416 227.391 49.2842 226.852C50.3614 226.313 51.9773 226.448 52.6506 226.582C51.5733 224.696 51.1694 222.272 52.5159 220.386C53.1892 219.577 54.1318 219.173 55.2091 218.904C55.7477 218.769 58.1715 218.904 58.8448 219.039C57.9022 217.961 57.4982 216.21 57.7675 214.728C58.1715 212.977 59.3834 211.899 60.9993 211.225C62.7498 210.417 64.7697 210.282 66.6548 209.878C67.5974 209.744 68.6747 209.474 69.4826 209.07C70.2906 208.666 71.0985 208.127 71.9064 206.915C72.0411 206.78 72.0411 206.915 71.9064 207.049C71.5025 207.723 71.0985 208.262 70.4252 208.801C69.8866 209.339 69.2133 209.744 68.4054 210.013C66.6548 210.821 64.7697 211.091 63.0191 211.63C61.4032 212.168 59.922 212.977 58.9794 214.324C58.0368 215.806 58.0368 217.557 58.8448 219.039C58.8448 219.173 58.8448 219.173 58.7101 219.173C57.9022 219.173 56.017 219.308 55.4784 219.577C54.6704 219.847 53.7278 220.251 53.1892 220.925C51.9773 222.541 52.112 224.831 52.9199 226.717C52.9199 226.717 51.0347 226.717 49.5535 227.525C48.8802 227.929 48.3416 228.603 47.9376 229.277C47.1297 230.893 47.2643 233.048 48.4762 234.53C48.4762 234.53 48.4762 234.53 48.4762 234.665L47.2643 235.204C47.6683 235.339 48.4762 234.8 48.6109 234.8Z" fill="#263238"/>
<path d="M115.4 158.15C111.091 159.766 102.743 153.839 99.107 148.855C98.8377 148.451 98.5684 133.363 98.2991 130.4C98.1644 129.726 117.69 132.69 117.69 132.69C117.69 132.69 116.612 139.156 117.286 144.409C117.286 144.814 119.575 156.668 115.4 158.15Z" fill="#AD6359"/>
<path d="M117.69 132.555C117.69 132.555 117.42 133.767 117.286 135.653C111.899 142.254 103.281 142.928 98.8377 142.793C98.7031 138.078 98.5684 132.016 98.2991 130.13C98.1644 129.726 117.69 132.555 117.69 132.555Z" fill="#263238"/>
<path d="M98.2991 97.9343C98.2991 97.9343 92.1049 100.359 90.893 106.556C89.6811 112.752 90.893 119.353 91.4316 119.623C91.9702 120.027 98.2991 97.9343 98.2991 97.9343Z" fill="#263238"/>
<path d="M123.345 106.017C124.961 112.887 120.113 132.016 114.996 135.923C107.725 141.715 96.2792 141.58 91.5663 132.824C86.9879 124.472 93.7208 99.6856 99.2417 96.0484C107.59 90.9294 121.056 95.9137 123.345 106.017Z" fill="#AD6359"/>
<path d="M104.224 116.659C104.089 118.141 103.955 119.623 105.032 120.296V120.431C103.551 120.027 103.685 117.871 104.224 116.659Z" fill="#263238"/>
<path d="M105.571 115.581C107.725 115.851 107.186 120.027 105.167 119.892C103.147 119.623 103.82 115.312 105.571 115.581Z" fill="#263238"/>
<path d="M96.6832 115.446C96.5485 115.446 96.6832 115.312 96.6832 115.446C96.4139 116.928 96.0099 118.41 94.798 118.679V118.814C96.2792 118.679 96.8179 116.659 96.6832 115.446Z" fill="#263238"/>
<path d="M95.6059 113.83C93.4514 113.426 92.7782 117.737 94.798 118.141C96.6832 118.545 97.3565 114.234 95.6059 113.83Z" fill="#263238"/>
<path d="M103.82 127.84C103.416 128.109 103.147 128.513 102.608 128.513C102.204 128.513 101.665 128.244 101.262 128.109C101.531 128.648 102.204 129.052 102.877 129.052C103.416 128.918 103.82 128.513 103.82 127.84C103.955 127.84 103.955 127.84 103.82 127.84Z" fill="#263238"/>
<path d="M97.6258 121.778C97.6258 121.778 97.0872 123.664 96.9525 124.607C96.9525 124.742 99.6456 124.876 102.204 126.223C102.608 126.358 102.608 126.089 102.204 125.685C101.396 125.011 100.184 124.203 97.7604 123.933C97.7604 123.664 98.703 120.97 98.5684 120.97C98.0297 120.835 96.9525 121.104 96.4139 121.104C97.4911 117.063 99.107 113.157 100.184 108.981C100.184 108.846 100.05 108.711 99.9149 108.846C97.8951 112.752 96.5485 117.467 95.3366 121.643C95.202 122.182 97.2218 121.778 97.6258 121.778Z" fill="#263238"/>
<path d="M107.186 114.099C106.648 113.83 106.244 113.426 105.84 113.022C105.301 112.618 104.897 112.348 104.628 111.675C104.493 111.271 104.763 110.866 105.167 110.732C105.974 110.462 106.782 110.732 107.321 111.271C107.994 111.809 108.398 112.348 108.668 113.291C108.937 113.965 107.86 114.504 107.186 114.099Z" fill="#263238"/>
<path d="M94.6634 109.115C95.202 108.98 95.7406 108.846 96.4139 108.711C97.0872 108.576 97.6258 108.442 98.0298 108.037C98.2991 107.768 98.2991 107.229 98.0298 106.96C97.4912 106.286 96.5485 106.286 95.8753 106.421C95.0673 106.556 94.394 106.96 93.8554 107.633C93.3168 108.307 93.8554 109.25 94.6634 109.115Z" fill="#263238"/>
<path d="M120.248 122.317C116.343 121.913 118.498 104.4 118.498 104.4C118.498 104.4 114.323 105.882 110.957 105.882C107.59 105.748 103.82 104.939 103.281 104.67C102.743 104.4 109.88 102.38 109.88 102.38C109.88 102.38 92.1049 103.996 91.5663 100.763C91.297 99.5509 94.6634 89.1782 109.206 89.8517C119.979 90.3906 124.961 101.572 124.961 101.572C124.961 101.572 130.213 107.364 129.27 110.058C127.789 114.638 124.422 122.721 120.248 122.317Z" fill="#263238"/>
<path d="M117.824 122.452C117.824 122.452 122.807 116.524 125.5 118.41C128.193 120.162 124.153 128.918 120.652 129.995C117.151 130.938 116.208 127.84 116.208 127.84L117.824 122.452Z" fill="#AD6359"/>
<path d="M124.153 120.835C124.288 120.835 124.288 120.835 124.153 120.835C121.729 121.643 120.383 123.664 119.305 125.954C120.113 125.146 121.056 124.742 122.133 125.685C122.133 125.685 122.133 125.819 121.999 125.819C121.056 125.55 120.383 125.685 119.575 126.358C119.036 126.897 118.632 127.571 118.363 128.11C118.228 128.244 117.824 128.11 117.959 127.975C118.363 124.742 120.921 120.835 124.153 120.835Z" fill="#263238"/>
<path d="M183.402 202.604C194.309 194.117 183.94 151.28 177.477 135.518C175.592 130.938 145.967 139.56 147.314 144.813C155.259 174.315 171.417 211.899 183.402 202.604Z" fill="#AD6359"/>
<path d="M152.296 160.979L155.528 169.061C156.605 171.756 157.682 174.45 158.894 177.144C159.972 179.838 161.318 182.398 162.53 185.092C163.742 187.651 165.089 190.346 166.435 192.905C164.685 190.48 163.203 188.055 161.722 185.496C160.376 182.937 159.029 180.242 157.817 177.683C156.74 174.989 155.528 172.294 154.585 169.466C153.912 166.637 152.97 163.808 152.296 160.979Z" fill="#263238"/>
<path d="M150.276 75.7071C150.68 79.8831 147.449 83.655 143.274 84.0591C139.1 84.4632 135.33 81.2302 134.926 77.0542C134.522 72.8781 137.753 69.1063 141.928 68.7021C146.102 68.298 149.872 71.531 150.276 75.7071Z" fill="white"/>
<path d="M150.276 75.7071C150.411 77.7277 149.872 79.7484 148.526 81.3649C147.314 82.9814 145.294 84.0591 143.274 84.3285C141.254 84.598 138.965 84.0591 137.215 82.712C135.464 81.3649 134.387 79.3443 134.252 77.0542C134.118 74.8988 134.791 72.6088 136.272 70.9922C137.753 69.3757 139.773 68.4327 141.928 68.298C144.082 68.1633 146.102 68.9716 147.583 70.3187C149.064 71.8005 150.142 73.6864 150.276 75.7071ZM150.276 75.7071C150.142 73.6864 149.064 71.8005 147.449 70.5881C145.833 69.3757 143.813 68.8369 141.928 69.1063C140.043 69.3757 138.292 70.3187 137.08 71.8005C135.868 73.2823 135.33 75.1682 135.464 76.9195C135.599 78.8054 136.541 80.5567 137.888 81.769C139.235 82.9814 141.12 83.7897 143.14 83.655C145.025 83.5203 147.045 82.712 148.257 81.2302C149.738 79.7484 150.411 77.7277 150.276 75.7071Z" fill="#263238"/>
<path d="M133.579 89.8516C133.848 92.1417 132.098 94.2971 129.674 94.4318C127.385 94.7012 125.23 92.9499 125.096 90.5252C124.826 88.2351 126.577 86.0797 129.001 85.945C131.425 85.8103 133.444 87.5615 133.579 89.8516Z" fill="white"/>
<path d="M133.579 89.8516C133.848 92.1416 132.232 94.4317 129.674 94.8358C128.462 94.9705 127.116 94.7011 126.173 93.8929C125.096 93.0846 124.422 91.8722 124.422 90.6598C124.288 89.3127 124.826 88.1003 125.634 87.1573C126.442 86.2144 127.789 85.6755 129.001 85.6755C131.425 85.6755 133.444 87.6962 133.579 89.8516ZM133.579 89.8516C133.444 88.7739 132.906 87.6962 131.963 87.0226C131.021 86.3491 129.943 86.0797 128.866 86.3491C126.712 86.7532 125.365 88.7739 125.634 90.5251C125.769 92.411 127.385 94.1623 129.539 94.1623C130.617 94.1623 131.694 93.7581 132.367 92.9499C133.31 92.1416 133.714 91.0639 133.579 89.8516Z" fill="#263238"/>
<path d="M207.775 40.009C209.256 52.2676 200.503 63.5832 188.249 65.065C184.21 65.6039 180.305 64.9303 176.804 63.4485C173.841 67.3551 169.398 70.0493 164.146 70.7229C157.279 71.5311 150.815 68.5675 146.91 63.4485C146.102 63.7179 145.294 63.8527 144.352 63.9874C136.003 65.065 128.327 59.0031 127.385 50.6511C126.981 46.7445 127.923 42.9726 130.078 40.009C127.654 36.9106 125.904 33.004 125.365 28.828C123.884 16.5694 132.636 5.25374 144.89 3.77193C150.546 3.09838 155.797 4.58019 160.241 7.54381C163.203 3.77193 167.647 1.21244 172.629 0.673596C181.382 -0.404085 189.596 4.84961 192.558 12.7975C193.366 12.5281 194.174 12.3934 194.982 12.2587C201.715 11.4504 207.909 16.3 208.717 23.0355C209.121 26.8074 207.909 30.3098 205.62 32.8693C206.697 34.7553 207.371 37.3148 207.775 40.009Z" fill="white"/>
<path d="M207.775 40.0089C208.179 43.9155 207.775 47.9568 206.159 51.4592C205.485 53.3452 204.408 54.9617 203.196 56.5782C201.984 58.06 200.638 59.5418 199.022 60.7542C195.925 63.179 192.154 64.6608 188.249 65.1997C184.344 65.7385 180.305 65.1997 176.669 63.7179H176.938C175.188 66.0079 172.899 68.0286 170.206 69.241C167.647 70.5881 164.685 71.2616 161.722 71.2616C158.76 71.2616 155.797 70.5881 153.239 69.3757C150.546 68.0286 148.257 66.1426 146.371 63.8526L146.91 63.9873C143.813 64.9303 140.446 64.9303 137.349 63.8526C134.252 62.9096 131.559 60.7542 129.539 58.1947C128.597 56.8476 127.789 55.3658 127.385 53.884C126.846 52.2675 126.577 50.651 126.577 49.0345C126.577 45.8014 127.519 42.4337 129.405 39.7395V40.5477C126.038 36.237 124.153 30.7139 124.422 25.3255C124.692 19.9371 126.846 14.5487 130.617 10.5073C134.387 6.46604 139.504 3.90655 144.89 3.36771C150.276 2.82887 155.932 4.17597 160.376 7.27431L159.837 7.40902C161.991 4.71481 164.819 2.69416 167.916 1.48177C171.013 0.269378 174.515 -4.26471e-05 177.881 0.538798C181.247 1.07764 184.344 2.55945 186.903 4.71481C189.461 6.87018 191.481 9.69909 192.693 12.7974L192.558 12.6627C195.117 11.8545 198.079 11.8545 200.638 12.7974C203.196 13.7404 205.485 15.4916 206.967 17.7817C208.448 20.0718 209.121 22.9007 208.852 25.5949C208.583 28.2891 207.505 30.9833 205.62 32.8692C206.697 34.8899 207.505 37.3147 207.775 40.0089ZM207.775 40.0089C207.505 37.4494 206.697 34.8899 205.485 32.5998C207.236 30.5792 208.448 28.0197 208.583 25.3255C208.852 22.6313 208.044 19.9371 206.563 17.647C205.081 15.3569 202.927 13.6057 200.369 12.7974C197.81 11.8545 194.982 11.8545 192.424 12.7974H192.289V12.6627C191.077 9.56438 189.057 6.87018 186.499 4.84952C184.075 2.69416 180.978 1.34706 177.746 0.808218C174.515 0.269378 171.148 0.673508 168.186 1.8859C165.223 3.09829 162.53 5.11894 160.51 7.67844L160.241 7.94786L159.837 7.67844C155.528 4.71481 150.142 3.50242 145.025 4.17597C139.908 4.84952 135.06 7.27431 131.559 11.0462C128.058 14.8181 126.038 19.9371 125.769 25.056C125.5 30.175 127.25 35.4287 130.347 39.47L130.617 39.8742L130.347 40.2783C128.597 42.7031 127.654 45.8014 127.654 48.765C127.654 50.2468 127.923 51.7287 128.327 53.2105C128.866 54.6923 129.539 56.0394 130.347 57.2518C132.098 59.6766 134.656 61.6972 137.484 62.6402C140.312 63.7179 143.544 63.7179 146.506 62.9096L146.775 62.7749L146.91 63.0443C148.661 65.3344 150.815 67.2203 153.373 68.4327C155.932 69.7798 158.76 70.4534 161.588 70.4534C164.415 70.4534 167.243 69.9145 169.802 68.5674C172.36 67.355 174.649 65.4691 176.4 63.179L176.534 63.0443H176.669C180.17 64.5261 184.21 65.1997 188.115 64.6608C192.02 64.122 195.79 62.7749 198.887 60.3501C200.503 59.2724 201.85 57.7906 203.062 56.3088C204.274 54.6923 205.351 53.0758 206.024 51.3245C207.64 47.8221 208.179 43.7808 207.775 40.0089Z" fill="#263238"/>
<path d="M169.398 40.6824C169.398 38.9311 169.667 37.3146 170.206 35.8328C170.744 34.351 171.956 33.1386 173.841 32.1956C174.38 31.9262 175.053 31.5221 175.861 31.1179C176.669 30.7138 177.477 30.175 178.15 29.6361C178.958 29.0973 179.497 28.4237 180.035 27.6155C180.574 26.8072 180.843 25.9989 180.843 24.9213C180.843 24.113 180.709 23.4395 180.439 22.9006C180.17 22.3618 179.766 21.8229 179.362 21.4188C178.824 21.0147 178.285 20.7453 177.746 20.4758C177.073 20.3411 176.534 20.2064 175.861 20.2064C175.053 20.2064 174.38 20.3411 173.707 20.6105C173.033 20.88 172.495 21.2841 171.956 21.6882C171.417 22.0924 171.013 22.6312 170.475 23.17C170.071 23.7089 169.667 24.2477 169.398 24.6518L164.685 21.4188C165.089 20.3411 165.762 19.2634 166.57 18.4552C167.378 17.6469 168.186 16.8387 169.263 16.2998C170.205 15.761 171.283 15.2221 172.495 14.9527C173.707 14.6833 174.918 14.5486 176.13 14.5486C177.477 14.5486 178.824 14.6833 180.17 15.0874C181.517 15.4916 182.729 16.1651 183.806 16.9734C184.883 17.7816 185.691 18.994 186.364 20.3411C187.038 21.6882 187.307 23.3047 187.307 25.1907C187.307 26.4031 187.172 27.346 186.903 28.289C186.634 29.232 186.23 30.0403 185.691 30.7138C185.152 31.3874 184.614 32.0609 183.94 32.7345C183.267 33.2733 182.459 33.8121 181.651 34.4857C180.978 34.8898 180.17 35.2939 179.497 35.6981C178.824 36.1022 178.15 36.5063 177.477 37.0452C176.938 37.584 176.4 38.1229 175.996 38.7964C175.592 39.47 175.457 40.1435 175.457 41.0865H169.398V40.6824ZM169.532 53.3451V45.8013H175.592V53.3451H169.532Z" fill="#B68C5A"/>
<path d="M155.932 26.5379C156.336 28.2891 156.336 29.9056 156.067 31.3874C155.797 32.8692 154.855 34.3511 153.373 35.6982C152.97 36.1023 152.296 36.6411 151.623 37.18C150.95 37.7188 150.276 38.3924 149.603 39.0659C148.93 39.7395 148.526 40.5477 148.122 41.4907C147.718 42.299 147.718 43.2419 147.853 44.3196C147.987 45.1279 148.257 45.6667 148.661 46.2055C149.064 46.7444 149.603 47.1485 150.142 47.4179C150.68 47.6874 151.354 47.9568 151.892 47.9568C152.566 47.9568 153.239 47.9568 153.777 47.8221C154.585 47.6874 155.259 47.4179 155.797 47.0138C156.336 46.6097 156.875 46.2056 157.279 45.6667C157.682 45.1279 158.086 44.589 158.356 44.0502C158.625 43.5113 158.894 42.8378 159.029 42.4337L164.281 44.7237C164.011 45.9361 163.607 47.0138 163.069 48.0915C162.53 49.1692 161.722 49.9774 160.914 50.7857C160.106 51.594 159.164 52.2675 158.086 52.8063C157.009 53.3452 155.932 53.7493 154.72 54.0187C153.373 54.2882 152.027 54.4229 150.546 54.2882C149.199 54.1534 147.853 53.7493 146.641 53.2105C145.429 52.5369 144.351 51.7287 143.409 50.5163C142.466 49.3039 141.793 47.8221 141.389 45.9361C141.12 44.8584 141.12 43.7808 141.12 42.8378C141.254 41.8948 141.389 41.0866 141.793 40.2783C142.197 39.47 142.601 38.6618 143.14 37.9882C143.678 37.3147 144.351 36.5064 145.025 35.8329C145.698 35.294 146.237 34.7552 146.91 34.2163C147.583 33.6775 148.122 33.1387 148.526 32.4651C149.064 31.9263 149.334 31.2527 149.603 30.4445C149.872 29.7709 149.872 28.9626 149.738 28.0197L155.932 26.5379ZM153.239 14.1445L154.72 21.5536L148.795 22.766L147.314 15.3569L153.239 14.1445Z" fill="#B68C5A"/>
</g>
<defs>
<clipPath id="clip0_8_180">
<rect width="570" height="574" fill="white"/>
</clipPath>
</defs>
</svg>
